<?xml version="1.0" encoding="utf-8"?><svg xmlns="http://www.w3.org/2000/svg" viewBox="0 0 1180 1180"><path d="M972.57 1140.31l-6.17-103.18c-.91-13.94-.89-28-3.75-41.74l-12.17-56.6c-3-15.75-7.53-30.65-17-43.88-4.25-5.93-7.53-12.55-11.1-18.95a11.53 11.53 0 0 0-5.68-5.25l-23.55-10.86c-2.55-1.14-3-2.13-.68-4.05s4.41-4 6.62-6.09c1.18-1.09 1.88-2.1.75-3.82-10.72-16.26-19.71-33.53-29.61-50.27-3-5.1-6.68-10.15-8.27-15.73-4.06-14.17-11.6-25.89-21.91-36.2-4.82-4.81-9-10.24-13.53-15.38-1.09-1.24-2.79-2.45-2.38-4.18 1.26-5.31-2.1-8.78-4.57-12.64-19.67-30.66-41.52-60-57.29-93-.85-1.79-5-4.85 1.17-5.66 1.23-.17 1.07-2.3 1.42-3.55l7.91-27.79.86-.07 5.14 26.26 10.1-11.75c7.74-9 7.9-9.07 1.92-19.5-4.71-8.19-7.89-17.3-14.54-24.33l-33.91-36c-2.58-2.79-5.21-4.12-8.71-2.79-4.34 1.64-6.5-.37-8.8-3.84l-51.4-76.8c-9-13.6-19.24-26.36-26.36-41.16-1.59-3.32-1-7-3.17-10.31-12.51-18.93-21.84-39.81-36-57.8-5.73-7.31-10.1-15.67-15.45-23.3-3.46-4.94-5.82-10-5.15-16.15.39-3.67-1.5-6.74-2.91-9.93-.51-1.15-2-2.64-.59-3.56 2.33-1.57 1.15-3.18.52-4.72-12.09-30.08-22.41-60.89-37.15-89.87-1.22-2.41-1.53-6.34-6.09-4.14-1.08.52-1.1-.68-1.27-1.49l-3.19-15.14c-.15-.77-1-2.81.89-2.27 3.5 1 1.83-1.65 1.76-2.44l-4.71-49.22c-.24-2.62-1.37-2.82-3.52-2.72-3.69.19-7.38 0-11.07 0 4.2-1.3 3.29-5 3.74-7.86l7.91-51.81c-2.63 2.22-4.55 3.76-6.5 5.22-.81.61-1.53 2-2.87.56l-15.14-15.89.63-.77 14.92 3.65L513.53 1h-9c-2.37 2.18-1.11 4.62-.47 7 1.85 6.89 1 7.73-6 6q-6.79-1.65-13.58-3.38c-1.86-.48-3.71-.76-5 1-1.51 2.15 0 3.74 1.27 5.3.53.64 1.09 1.25 1.68 1.84q11.88 11.79 23.18 24.15c6.15 6.71 6.49 8-.11 14.14-3.88 3.58-4.65 7.19-2.83 12 2 5.29 3.84 10.67 5.31 16.14s0 8.05-5.38 9.84a24.78 24.78 0 0 1-14.74.16L437.19 81.6c-4.3-1.16-7.57-.58-10.9 2.57a173 173 0 0 1-13.48 11.89c-6.89 5.29-10.16 11.52-10.06 20.8.13 10.88 1.55 20.72 8.33 29.48 3.29 4.25 4.34 9.27 4 14.62-.49 7.8-1.21 15.59-1.07 23.43.12 6.86-1.88 8.87-8.6 9.8-6.41.88-10.72-2.13-12.24-8.93-2-9.1-3.46-18.32-5.11-27.5-1.33-7.39-2.21-8.4-9.85-8.17-12 .35-23.92 1.36-35.86 2.25l-50.26 3.69-32.86 2.27-52.76 3.68-35.86 2.29-56.25 3.77-33.86 2.25-54.76 3.72-25.73 1.73v150.53l27.12-7.21c5.91-1.46 12.66-3.39 18.2-1.06 16.07 6.76 32.35 13.08 47.78 21.37 18.29 9.83 33.47 22.77 43.79 40.91 4.54 8 11 12.41 20 13.53 3.77.46 7.37 2.16 11.14 2.68 4.24.59 5.32 2.93 5.36 6.74.06 6.33.51 12.65.59 19 0 3.46 1 5.79 4.47 7.39 5.27 2.45 10.06 6 15.38 8.27 13.42 5.83 24 14.74 30.92 27.63 2.69 5 6.36 6.8 11.75 5.29 3.87-1.08 5.64.78 7 4.24 3.17 8 6.84 15.88 10 23.92 1.24 3.14 2.95 4.24 6.32 4.07 7.81-.4 15.82.57 23.42-.79 14.69-2.64 25.23 2.78 33.74 14.18 1.44 1.92 2.68 3.55 2.87 6.05.49 6.83 1.23 13.65 1.85 20.24 2.73 0 2.35-5.45 4.9-2.75 5.1 5.41 11.23 10.22 11.85 18.89s2.89 17.08 3.61 25.69c.51 6.11 2.59 10.45 8.46 12.48 4.65 1.61 4.76 5.38 4.78 9.28l.21 43.48a54.26 54.26 0 0 1-1.17 13.86l-7.63 32c-3.68 14.57-7 29.1-4 44.29a90.13 90.13 0 0 1-2.37 43.39c-.81 2.71-1.12 5.56-1.94 8.26-.74 2.44 0 3.91 1.91 5.53l23 20a13.21 13.21 0 0 0 4.62 2.85l22.24 7.49c2.68 1 3.84.74 4.08-2.4q1.5-19.17 3.32-38.31c.27-2.8-.7-4.25-3.23-5.3-4.14-1.73-8.15-3.76-12.21-5.68-10.68-5.05-10.59-5-4.26-15.27 1.42-2.31 2.53-2.47 4.69-1.19 5 3 10 5.91 15.2 8.6a6.22 6.22 0 0 1 3.66 5.91c.25 5.32.84 10.62 1.09 15.94.11 2.39.82 3.51 3.41 3.8 5.62.64 11.2 1.61 16.78 2.55 2.82.48 3.11-.44 2.2-2.9-1.25-3.39-2.14-6.92-3.46-11.3 3.13 2.42 5.38 4.41 7.87 6 2.66 1.7 2.91 3.23 1.11 5.91-5 7.46-9.36 15.39-14.63 22.65-7.49 10.32-12.43 21.49-13.9 34.18-.31 2.64-1 5.23-1.47 7.85a8.84 8.84 0 0 1-4.18 6.37c-5.58 3.69-10.94 7.7-16.79 11.87l29.12 17.11a12.53 12.53 0 0 1 5.24 5.7l31.67 64a23.48 23.48 0 0 0 4.92 6.84c12.36 11.7 23.59 24.3 32.19 39.11.73 1.26 1.4 2.61 3.14 3l40.83 8.23c-2.39-6.15-4-11.75-6.66-16.81-3.76-7.21-3.9-13.66.83-20.55 3-4.35 3.87-5.3 9.92-4.23a37.1 37.1 0 0 1-4.77 3.77c-3.7 2.05-3.92 4.51-2.21 8.18 2.73 5.87 4.46 12.23 7.44 17.95 3.83 7.38 4.12 14.91 2.85 22.76-.93 5.72-.55 11.15 2.36 16.4 1.31 2.37 2.87 4.89 2.93 9-4.45-7.18-8.47-13.29-12.08-19.64-1.73-3-3.22-3.22-6.2-1.67s-3 3-1.79 5.81l16 37.13c4.31 10 4.27 9.9 14.28 6 3.73-1.45 6.57-2.68 2.06-7.77l30 7.64c3.16.75 4.59 2.35 5.55 5.41l19.36 60.34a72.76 72.76 0 0 0 15 27.07l2.76 3H967c4.2-12.72 6.52-25.81 5.57-39.71zM492.2 239.83c10.77-8.53 8.78-16.77 2.23-25.13-1.23-1.57-1.74-3.19.32-4.7 2.24-1.63 2.76.78 4 1.56 4.77 3.1 6 7.46 4.72 12.86a78.19 78.19 0 0 0-1 8.41c-.86 6.95-1.03 7.1-10.27 7zm11.15 13.58c-1.4-8.39-.38-9.85 6.53-9zm20.83 21.71c3.12 1.1 3.12 1.1 1.39 5.62-1.37-2.09-1.29-3.85-1.39-5.62zm2.39 81.54v-8.51c4.65 4.47 4.71 6.72 0 8.51zm-1.26-179.87v-.92l11.67-3.63c1.65 4.87-.35 5.91-4.74 5a47.52 47.52 0 0 0-6.93-.45zM554.68 442c-13.79-6.12-16.87-19-22-31.85 8.59 5.32 16.68 10 22 17.4 2.8 3.74.32 9.58 0 14.45zm166.45 86.27l13 8.74c1.55 1 1.7 2.23 1 3.82l-4.87 12-9.13-24.57zm12.94 34.12c7.09.6 10.31 3.94 10.69 10.76.3 5.25 1.77 10.44 2.34 15.79-4.93-8.41-10.1-16.63-13.03-26.56z" fill="#1d271e"/><path d="M959.11 1049.5c.74 2.59-.41 3.72-2.93 3.91l-15.92 1.28c-23.22 1.81-45.89 7.16-68.83 10.79l-68.72 11.59c-2.86.5-3.84.41-4.39-3q-10.59-64.56-21.65-129.07c-.63-3.68.12-5.24 4.09-5.87l138.52-22.23c5.12-.82 10.24-2.91 15.48-.09 1.4.75 2.49 1.26 2.85 3 5.95 28.65 13.85 56.92 18 85.9 2.15 14.46 2.39 29.19 3.5 43.79zM630.78 701.53c-3.13 2.71-6 5.45-9.14 7.82-2.87 2.15-2.4 3.47.25 5.42l44.47 33.06c1.19.9 2.66 1.69 3.39 2.9l23 38.63-30.47 4.54-71.41 10.61q-36.92 5.58-73.82 11.31c-2.73.41-4.32.27-4.84-3.44l-10.69-70.88-6.16-41.37c-.47-3.28-2.38-3.76-4.92-2.87-4.94 1.74-5.18-.3-4.31-4.47 1.4-6.67 2.46-13.43 3.23-20.2.35-3.07 2-4.41 4.25-6.09 11.25-8.33 24.61-9.41 37.7-11.52 9.7-1.55 19.44-2.83 29.05-4.8 4.37-.89 5.6.72 6 4.45.48 4.12 1.16 8.22 1.73 12.33.31 2.19 1.12 3.08 3.65 2.47 3.7-.89 7.71-.67 11.26-1.89 5.13-1.76 7.38.2 8.58 4.84.33 1.26 1.21 2.39 1.56 3.65 3 10.79 9.58 18.29 19.19 24.14 4.92 3 9.11 1.6 13.71 1.44 1.44-.05 2.79-1.17 4.74-.08zM417.32 524.05c-2.18.56-4.14-.44-6.12-1.32l-25.92-11.56c-4.39-2.1-8.59-3.38-13.19-1.08-2.35 1.18-3.17.38-3.5-2.08l-4-27.17c-.58-3.45.95-4.31 3.84-4.69l18.79-2.66c2.77-.35 3.46-1.43 3-4.25l-8.48-52.75c-.7-4.15.32-5.46 4.53-5.88 8.44-.84 16.83-2.23 25.2-3.62 3.5-.58 5.33.29 6.68 3.81 4 10.43 4.42 10.71 13.58 4.59 17.17-11.48 36.36-18.65 55.2-26.59 5-2.09 15.16 2.2 17.25 7.08 2.55 6 5.28 11.87 7.5 18 1.34 3.69 3.29 4.68 7.07 4 7.5-1.4 6.94-.9 10.46 5.52 8 14.62 8.88 30.62 10.37 46.6l3.46 32.73c.19 1.71.8 2.95-1.93 3.35q-60.61 8.82-121.21 17.88c-.8.04-1.64.04-2.58.09zm226.54 170.49l-20.56 3c-3.84.68-6.76-.6-10.24-2.16-10.79-4.81-13.38-15-17.4-24.31s-4-9.39-14.18-7.63c-9.4 1.62-9.4 1.62-10.79-7.76-1-6.93-1-6.84 5.73-7.89q71.77-11.16 143.58-22.52c4.4-.7 6 .1 6.66 4.78l15.45 103.7 6.29 44.4c.45 3-1.43 2.81-3.17 3.09-12 1.9-24.15 2.94-35.83 5.94-9.82 2.52-14.71-.59-18.54-9.3-9.71-22.08-25.3-39.07-46-51.55-5.39-3.25-10-7.75-15.31-11.19-3.95-2.58-3.36-4.17-.08-6.74 5.09-4 9.85-8.4 14.75-12.63zm317.77 402.52l1.85 32.91c.22 3-.9 4-3.47 4.86-23.12 7.62-47 11.4-71 15.06-11.15 1.71-22.25 3.89-33.44 5.33-13.22 1.7-26.57 1.55-39.89 1.85-2.29 0-2.74-1.36-3.06-3.11l-12.57-68.76c-.88-4.57 2.36-3.66 4.31-4l51.68-8.84 75.34-12.68c8.19-1.29 16.6-1.18 24.9-1.86 2.7-.23 3.35.82 3.47 3.34l2 35.9zM774.29 956l23.07 138.65q-25.71 4.64-51.38 9.24l-20.59 3.67c-2.78.57-3.63.09-4.11-2.88l-8.66-52.06c-.54-3.5-1.89-4.1-4.84-3.59l-49.56 8.57c-4.31.79-6.74.81-7.49-4.63-2-15-4.63-29.85-7.15-44.75-.6-3.52 1.54-3.78 3.95-4.14q33.56-5.13 67.13-10.27l51.32-7.92c3-.45 4.21-1.71 4.51-4.74.81-8.41 1.93-16.78 2.93-25.18zm-233-513.26c10.59 9 21.12 16 27.54 27.1a15 15 0 0 0 5.41 5l25.32 16a8.45 8.45 0 0 1 4.45 7 81 81 0 0 1-4 36.79 5.39 5.39 0 0 1-4.76 4.12q-20.34 3.63-40.68 7.21c-3.1.55-5.14.86-4.38 5.48l14.16 90c.45 2.85-.11 4-3.36 4.51l-48.71 7.65c-2.86.48-3.61-.24-4-3.1l-9.82-68.54-8.51-58.16c-.7-4.37-.2-6.17 4.54-6.8l48.43-7c4.3-.56 5.11-2.15 4.67-6.05l-5.57-52.66c-.24-2.37-.41-4.83-.73-8.55zm-213.2 84.5c2.05-10.19-3.55-15.83-9.6-21.67-13.39-12.91-13.22-13-31.5-12.15-7.65.36-15.32.26-23 .62-2.41.11-3.6-.65-4.5-2.82l-10.81-25.21a5.52 5.52 0 0 1 .3-5.16c2.87-5.61 5.38-11.42 8.44-16.93a111.27 111.27 0 0 0 13.06-37.35c.48-3.13 1.89-4.41 5.22-4.46q21.48-.36 43-1.22c7.91-.32 15.57 1.22 23.32 2.22 2.67.34 3.36 1.74 3.76 4.24 1.65 10.25 1.76 10.22 12.08 8.23 4.9-.94 9.86-1.61 14.72-2.74 3.42-.8 4.56.07 5.08 3.66l7.6 48.7c.52 3.11.1 4.49-3.44 4.84-6.43.65-12.79 2.08-19.22 2.76-2.83.31-3.29 1.48-2.93 3.84l4.66 30.52c.61 3.71.13 5.93-4.05 7.41-10.45 3.72-20.68 8.08-32.19 12.67zM748 881.44l-39.7 6.44c-3.08.47-4.45 1.41-3.79 4.74.88 4.39 1.36 8.86 2.13 13.27.35 2-.06 2.88-2.38 3.16-4.77.57-9.47 1.64-14.22 2.41-2.15.35-3.17 1.06-2.63 3.57.91 4.21 1.35 8.53 2.14 12.77.57 3-.38 4.57-3.57 5q-23.41 3.38-46.8 7c-3.68.56-5.33 0-6-4.47l-17.79-116.66c-.48-3.12-.92-6.25-1.65-9.31s.47-4.06 3.43-4.48q36.33-5.13 72.63-10.53c2.63-.39 4-.75 3.12 3-2.16 9.37-3.6 18.9-5.74 28.27-.63 2.73.06 4 2.21 5.19 2.6 1.47 5 3.36 7.65 4.69 17.66 8.79 31.41 22.09 43.49 37.37 2.14 2.71 4.54 5.23 7.47 8.57zm-341.62-122.5c-.64 1.54 1.2 4.67-2.22 2.73l-23-13c-1.55-.86-1.87-2.24-2.1-3.72l-3.7-23.68c-.5-2.84.68-3.28 3.06-3.61l61.8-8.72 46.46-6.64c3.37-.52 4.56 0 5.09 3.66q7.85 53.34 16.18 106.61c.58 3.67-.46 4.68-3.61 5.13q-25.15 3.57-50.28 7.25l-31 4.57-4.89.51c-.75-2 .7-3 1.41-4.15l21.93-34.57c1-1.65 2.38-3-.12-4.91l-35.01-27.46zM183.83 359.56q-3.66 13.94-7.31 27.89c-.56 2.16-2.15 1.76-3.59 1.4l-21.73-5.65c-1.84-.46-2.73-1.78-3.71-3.1-3.66-5-7.8-9.64-10.85-15-11.11-19.31-30.46-28.1-48.72-38.1-11.34-6.19-23.63-10.67-35.59-15.69-3.19-1.33-4.58-2.62-3-6.2a40.69 40.69 0 0 0 3-10c1.92-13.12 8.88-22.93 19.27-30.68 1.48-1.1 2.75-2.19 4.74-2.45l59.38-8c9-1.34 16.41 3.35 24.47 5.58 1.71.47 1.45 2 1.62 3.3l4.77 36.56 5.28 43c.79 5.65 6.45 8.21 9.43 12.53.95 1.45 3 2.3 2.54 4.61zm440.45 219.57l27.32-4.44 37.39-6.42a6.41 6.41 0 0 1 5.86 1.73l18.34 15.45a8.42 8.42 0 0 1 2.87 4.5l7.69 26.86c.92 3 .08 3.7-2.72 4.13q-72.84 11.34-145.64 22.84c-4.12.65-6.58.73-7.38-5l-13-84.87c-.4-2.52 0-3.55 2.7-4l36.81-6.81c3.12-.6 4.09.1 3.61 3.52-1.21 8.57-1.86 17.22-3.05 25.79-.39 2.84.29 4 3.1 4.2l26.1 2.52zM771.2 937.39l-4.25 35.12c-1.3 9.21-1.57 9-10.93 10.4l-94.9 14.75-13.77 2.16c-3.35.62-5.14-.1-5.62-3.92l-5.23-38c-.41-3-.39-6-1.22-8.86-1-3.53.17-4.57 3.52-5.05l47.87-7.12c8.35-1.21 8.36-1.1 7-9.5-1.89-11.76-1.89-11.76 9.73-13.77 8.56-1.47 8.56-1.47 7.24-10-1.71-11.14-1.72-11.19 9.44-13.15 8.84-1.55 17.79-2.62 26.53-4.6 5.61-1.27 9 2.27 13.28 4.16 6 2.67 8.26 7 8.55 13.49.49 11.01 1.74 21.94 2.76 33.89zm-418.64-625.8c9.54-1.53 18.46 4.09 27.31 8.68 9.52 4.93 19.09 6.53 29.25 4.23 8.16-1.85 12.92 1.12 18.36 7.41 9.08 10.5 13.16 22.08 14.23 35.54.81 10.23 2.71 20.39 4.43 30.52.44 2.59 0 3.91-2.24 5.2q-8.44 4.8-16.63 10c-2.31 1.49-3.17 1.1-4.27-1.41-4.58-10.49-4.65-10.29-15.43-8.56-17.67 2.84-35.49 4.81-53 8.57-2.41.52-3.79.25-4.23-2.94-1.16-8.53-1.39-8.5-10.13-10.29-.33-.06-.64-.22-1-.28-10.61-2.11-10.79-2.08-12.42-12.48l-6.49-43.8a8.43 8.43 0 0 1 2-7.22c4.71-6 9.64-11.93 13.79-18.34 3-4.6 6.54-6.15 11.64-5.22 1.17.25 2.35.22 4.83.39zm422.63 620.99c-1-10.85-2.29-20.23-2.55-29.64-.2-7.06-1.8-12.34-8.85-15.41-10.45-4.56-17.4-13.47-23.91-22.17-11.81-15.78-27.7-26.11-44.3-35.71-3.17-1.84-4.34-3.58-3.36-7.48 2.11-8.37 3.61-16.9 5.16-25.41.44-2.44 1.14-3.66 3.89-4.09q32.28-5.05 64.52-10.51c2.76-.46 3.1 1 3.43 2.91.76 4.26 1.62 8.5 2.17 12.79.3 2.38 1.14 3.1 3.55 2.61 4.07-.84 8.31-1 12.28-2.13 3.8-1.07 4.64.74 5.13 3.73q3.07 18.9 6.22 37.8 4.21 25.26 8.56 50.5c.33 1.88.53 3.49-.85 5.12l-31.09 37.09zM327 164.18c3.35-.88 3.6 1.08 3.91 3.22l6.66 45.33 6.58 44.33a15.17 15.17 0 0 1-1 8.7l-13.55 32.1c-1.56 3.55-1.84 6.08 2.14 8s4.5 4.14 1.33 7.82c-5.1 5.91-9.66 12.31-14.27 18.63-1.47 2-2.53 2.39-4.74 1q-11.52-7.44-23.31-14.46c-2.34-1.4-2.92-3.36-3.22-5.76l-10.46-82.56c-.39-3 .38-3.77 2.9-4.27 4.73-.92 9.43-2 14.15-3a9.81 9.81 0 0 0 2.88-.71c2.87-1.68 6.53-17.84 4.73-20.66l-17-26.48a5.34 5.34 0 0 1 3.87-8.37l38.4-2.86zm158.89 502.43l-4.63 29.85c-.33 2.11-1.74 2.36-3.55 2.62l-54.72 7.82-67.52 9.67c-4 .59-5.31.42-4.15-4.23l11.49-49.56c.58-2.55 1.58-3.79 4.48-4.2l73.09-10.66c4.42-.62 7.31-1.46 5.32-6.86-.89-2.42-.42-4.36 2.95-4.79l29.15-4.18c1.85-.28 3.24-.14 3.56 2.2l4.53 32.32zm120.35 441.87c-3.77 1.07-4.89-.54-5.66-3.13l-7.23-23.33a5.65 5.65 0 0 0-4.61-4.44c-10.18-2.42-20.27-5.25-30.42-7.8a6.83 6.83 0 0 1-5.3-4.5c-2-5.12-3.79-10.4-6.6-15-5.23-8.62-4.63-17.66-3.49-27 .35-2.8 1.37-4 4.22-4.37q43.44-6.3 86.85-12.85c3.59-.54 5.16.11 5.79 4.27l10.6 65.42c.56 3.31-.7 4.45-3.63 4.89-4.09.62-8.14 1.67-12.26 2-3.17.26-3.38 1.84-3 4.25.89 5.24 1.53 10.52 2.68 15.69.73 3.27-.46 4.13-3.42 4.29l-24.52 1.61zM506.06 821.76c2.36-.66 3.25.4 3.61 3l8.95 64.22c1.12 7.88 2.1 15.79 3.57 23.61.63 3.33-.11 4.31-3.41 4.7Q504 919 489.22 921.43c-2.65.43-2.55-.8-2.81-2.6l-4.66-33c-.41-3.76-1.87-4.33-5-3.9l-40.94 5.55-15.78 2.18a4.2 4.2 0 0 1-2.82-.7l-19.79-11.62c-2.57-1.46-2.17-2.72 0-3.67 8.79-3.79 11.23-11.27 12.25-19.89.59-4.94 1.92-9.78 2.9-14.67.44-2.21 1-3.86 3.88-4.27l87.86-12.91c.54-.08 1.04-.1 1.75-.17zm-268.14-360c-3.61 1.08-5.86-.25-7.55-3.27a62 62 0 0 0-31.44-27.72c-2.14-.88-4-2.61-6.14-3.28-9.12-2.82-10.72-9.3-11.35-18.1a120.72 120.72 0 0 1 5.9-46.43c.86-2.67 2-3.68 4.71-4q33.36-4.56 66.68-9.4c2.31-.33 4.91-1 3.43 2.72-3.43 8.62-1.17 17 .7 25.39.9 4.06 1.5 8.2 2.66 12.18 3.94 13.52-.79 26-5.26 38.14-3.6 9.77-9.19 18.8-13.59 28.29-1.87 4-3.95 6.9-8.75 5.48zM77 256.57c3.35-7.06 6.33-14.28 10.13-21a16.82 16.82 0 0 0 1.13-15.47c-3-7.91-2.65-8 3.7-13.41 4.19-3.55 8.07-7.55 12.59-10.6s4.83-6.25 3.45-10.91c-1.78-6-1.5-5.87 4.56-6.24l51.69-3.65c4.46-.4 6.31.68 7.15 4.91.78 3.88 2.45 7.59 3.18 11.47C176.69 203 182 212.5 191 219.75c4.52 3.66 4.91 7.37 2.57 12.44a151.44 151.44 0 0 0-6.43 17.22c-1 3-2.77 4.19-5.69 4.53q-6.93.8-13.8 1.9a14 14 0 0 1-8.7-1.43c-12-6.16-24.48-5.15-37.26-2.9-13.07 2.3-26.29 3.7-39.45 5.39-1.58.2-3.24.7-5.24-.33zM283.61 315c.78 2.4-1.26 3.75-3 5.32-8.68 7.81-8.66 7.81-17.15.18-8.18-7.35-17-14.1-24.4-22.15-7.1-7.71-15.54-10.05-25.28-10.42-4.14-.16-8.26-.88-12.4-1.22-2.69-.21-4.21-1.47-4.67-4.15-.28-1.63-.76-3.22-1.17-4.83-1.95-7.54-6.08-15.3-5.31-22.55 1-9.14 6-17.83 9.12-26.78a6.18 6.18 0 0 1 3.7-3.7l23.81-11.5a7.07 7.07 0 0 1 6.14-.35q17.76 6.6 35.67 12.83c2.73.94 3.8 2.21 4.16 5.17L283.61 315zm251.85 640.75c-3.73.44-3.13-2.11-3.36-3.65l-5.55-38.54c-.87-6.1-1.54-12.23-2.7-18.27-.65-3.39.15-4.74 3.63-5.26l58.71-9.11 29.09-4.62c3.09-.56 4.51-.11 5 3.24q4.35 29.13 9 58.22c.45 2.76-.73 3.58-3 3.92l-53.64 8.21-35.44 5.44a17.48 17.48 0 0 0-1.74.42zm70.87-149.12c1.8-.47 2.86.43 3.25 3.06q4.27 28.88 8.81 57.72c.42 2.71.07 4.08-3.27 4.59l-87.53 13.72c-3.16.5-4.85.37-5.39-3.81-2.53-19.41-5.54-38.76-8.47-58.12-.35-2.31.19-3.4 2.56-3.75l90.04-13.41zM429.32 589.87c-8.05-1.43-16.25-1-24.39-1.44s-16.41 2-24.64 3c-5.27.63-10.48 1.74-15.74 2.38-4.92.6-13.41-6.41-14.17-11.42l-4.77-31.56a11.35 11.35 0 0 0-3.06-6.11l-9.86-11.27c-1.48-1.66-1.53-2.68.8-3.56 14-5.26 27.54-11.69 41.84-16.18a7.51 7.51 0 0 1 5.71.39q14.82 6.57 29.68 13a16.09 16.09 0 0 1 5.21 3.75l27.46 28.33c2.08 2.1 2.57 3.74 1.19 6.48q-5.26 10.44-9.92 21.18c-1.14 2.63-2.66 3.56-5.34 3.03zM779.18 934.6l28.71-34.26c3.52-4 4.26-7.66 3.25-12.57-2.21-10.68-2.06-10.76 8.64-12.64l59.45-10.38a11.18 11.18 0 0 1 7.18 1q12.35 6 24.83 11.62a9.51 9.51 0 0 1 4.74 4.13l12 20.73c.76 1.34.77 2-.4 4-5.27 9.06-14.35 7.06-21.82 8.34L781.53 934.8a13.8 13.8 0 0 1-2.35-.2zM443.75 342.38l-11.29-76.49-3.58-22.14c-.33-2-.49-3.41 2.26-3.85l55.2-9a16.6 16.6 0 0 1 2.69.14l-12.7 20.12c5.31.08 9.89-1.12 14.49-2 2.73-.51 4.55-.07 3.54 3.07-3.29 10.19 1.79 15.78 10.4 19.52 9 3.9 13.33 10.47 14.48 20.46 1.27 11 2.1 11-8.71 12.93l-22.58 3.82a10.24 10.24 0 0 0-6.47 3.3c-4.18 4.75-9 9-12.74 14.07-6.26 8.39-15.37 11.77-24.99 16.05zm85.15-206.1c-4.17-6.62-9.32-4.83-14.25-3.36s-10.44 1.43-15.31 4.63c-2.72 1.79-7.48.77-11.29.5-7.66-.54-12.57 2.39-17 9-14.18 21.14-29.2 41.72-43.9 62.51-.56.8-1.21 1.53-2 2.57-2.08-4.36-1.18-8.37-.78-12.61.86-9.09.84-18.28 1.18-27.42.13-3.33-.18-6.74.47-10a25.6 25.6 0 0 0-6-22.68c-7-8.24-5.21-18.1-6-27.53-.15-1.71.9-2.79 2-3.8l15.68-13.94c2.15-2 4.16-1.33 6.43-.71 15.33 4.2 30.87 7.91 46.07 12.56 10.57 3.23 21.07 1.81 31.62 1.37 10.81-.45 10.8-.66 11.93 10.21q.86 8.2 1.67 16.4a14.53 14.53 0 0 1-.52 2.3zM24.94 247.58l-.08-25.47c-.09-3.55.85-5 4.62-5.23 8.71-.57 8.7-.78 6.12-9.29l-6.05-19.53c-1-2.92-.06-3.8 2.73-4l48.26-3.12 17.43-1c1.66 0 4.4-1.48 4.66 1.87s3.84 6.62-.14 10l-19.32 16.62c-2 1.65-2.72 3.26-1.52 5.46 5.45 10 2.42 18.85-2.33 28.42-5.55 11.18-11.39 21.69-21.66 29.17-2.92 2.14-4.45 5.07-5.4 8.62-2.13 8-4.78 15.86-7 23.85-.91 3.3-2.3 4.92-6.08 5-9.47.3-9.46.52-10.57-8.73-2.09-17.45-4.42-34.94-3.67-52.64zm467.63 718.81l115-17.53 18.74-2.94c2.71-.46 4.15-.12 4.58 3.18q3.17 24.27 6.87 48.46c.45 3-.72 3.85-3.21 4.21l-75.9 11.14-8.39 1.19c-7.61 1.24-7.61 1.26-10.36-5.62-2.24-5.56-4.32-11.18-6.77-16.65-1.18-2.65-.65-4.16 1.59-5.86 8.74-6.61 17.35-13.38 25.72-20.94l-29.66 4.24c-2 .28-3.95.71-5.94.79-5 .18-9 1.73-10.44 7.14-.37 1.39-1 2.86-3.11 1.47l-18.72-12.28zM372.18 161.08c4.15-1.28 5.52.9 6.11 4.83 1.2 7.86 2.86 15.66 4.2 23.5 1.29 7.65 7.72 11.73 12 17.29 1.16 1.52 3.81.24 5.71-.06 4.74-.76 9.46-1.69 14.16-2.69 3.19-.67 4.74 0 5.2 3.7 1.44 11.54 3.17 23.06 5 34.55.57 3.57-.54 4.9-4.1 5.46l-57 9.33c-3.11.51-6.26.86-9.3 1.65-3.77 1-5.59.37-6.19-4.08l-9.44-65.2c-1-7.08-1.78-14.21-3.17-21.22-.81-4.08.93-4.89 4.29-5.08l32.53-1.98zm481.95 626.8c1.77-.45 2.5.87 3.28 2.21l31.26 53.95c1.57 2.66.17 3.79-1.34 5.45-2.39 2.62-6.64 4-5.42 9.13.47 2-2.5 1.73-3.87 2l-35.74 6.29-30.86 5.35c-2.58.5-3.12-.3-3.48-2.45q-5.72-34.45-11.53-68.87c-.42-2.47-.21-3.87 2.87-4.34L853 788c.33-.08.66-.08 1.13-.12zM489.76 663.23l-5.28-38.65c-.57-4.5-1.77-7.26-7.13-8-8.33-1.22-16.48-3.7-24.74-5.52a4.77 4.77 0 0 1-3.34-1.79l-11-15.43c-1.37-1.86-.57-3.39.23-5.08l11.26-23.93c1.31-2.65 1.14-4.28-1-6.43-8.5-8.46-16.78-17.14-25.12-25.75-1.13-1.17-2.2-2.4-3.87-4.24l28.51-4.32 32.59-4.83c3.22-.52 4.31.23 4.78 3.57q9.08 64.51 18.5 129c.4 2.76 0 4.27-2.65 5.45-3.93 1.72-7.3 4.52-11.74 5.95zm-323.49-400c-.68-2.05.3-3.48 3.49-3.55 2 0 4-.55 5.93-.79 10.17-1.21 10.16-1.2 12.78 8.85 1.55 6 3.44 11.84 4.59 17.87.76 4 2.84 5 6.44 5.3 8.12.69 16.21 1.76 24.33 2.58a10.27 10.27 0 0 1 6.21 2.73q18.15 16.44 36.45 32.7c2.12 1.87 2.76 3.57 1.26 6a2.71 2.71 0 0 0-.3 1c-1.23 6.86-5.39 9.31-12.26 10.12-21.59 2.56-43.1 5.85-64.64 8.91-2.38.33-3.85-.71-5.69-2.13-8.91-6.85-9.64-16.65-10.75-26.68-2.27-20.75-5.11-41.36-7.84-62.91zM420.43 893.9l44.61-6c4-.51 9.28-3.15 11.84-.57 2.39 2.42 1.85 7.81 2.44 11.91l3.14 23.23c.35 3.32 1.47 4.07 4.73 3.56l33.09-4.67c2.4-.36 3.09.07 3.4 2.54q1.88 15 4.26 30c.35 2.2 0 2.73-2.2 3l-31.51 4.65c-2.69.42-7-.57-7.59 2.16a14.71 14.71 0 0 0 2.06 11.4 9.51 9.51 0 0 1 1 1.7c1.77 4.4 1.1 5.51-3.55 6a16.18 16.18 0 0 0-2.95.46c-4.55 1.3-8.53.92-11.28-3.53a5 5 0 0 0-1.05-1.06c-12.43-10.52-20.94-23.7-27.59-38.48-6.99-15.34-14.94-30.32-22.85-46.3zm22.8-544.8c-.22-.85.59-2.12 2.48-2.68 16-4.73 26.43-16.67 36.66-28.77a13.8 13.8 0 0 1 9.38-4.83q13.1-1.81 26.08-4.42c3.36-.68 5.48-.1 7.75 2.59 7 8.29 7.1 8.18 1.36 17.49a20.42 20.42 0 0 1-1.58 2.54c-6.28 7.42-8.09 16.09-7.39 25.54.15 2.05.54 4.23-1.7 5.87-1.56 1.15-.65 3.11-.35 4.69 1.39 7.38 2.54 14.78 2.09 22.32-.4 6.72 0 13.21 4 19 .74 1.07 3.29 3.41.1 4.16-2 .45-5.13 2.81-6.77-1.33-2.34-6.14-5.34-12.11-7.66-18.27-1.17-3.14-3.3-4.47-6.08-5.9-8-4.14-15.33-3.94-23.36.46-7.68 4.21-16.12 7-24.21 10.48-1.67.71-3.28 2-3.75-1.33l-7.05-47.61zM280.82 168.08c-3.81 3.72-1.92 6.52.09 9.54l15.7 24.28c3.84 6-.82 16.13-7.46 18.24-10.38 3.28-19.95 2.06-29.75-2.18-8.35-3.61-17.14-6.18-25.65-9.46a8.66 8.66 0 0 0-7.89.31c-7.8 4.06-15.87 7.6-23.69 11.63-2.55 1.31-4 1.07-5.85-1.08-3.23-3.81-6.68-7.43-10.21-11a16 16 0 0 1-4.13-7.23c-2.12-7.52-4.19-15.06-6.71-22.45-1.14-3.35-.14-3.92 2.88-4.11l33.82-2.4q33.03-2.17 66.16-4.32c.49-.03.99.08 2.69.23zm271.52 59.82q6.39 12.87 12.78 25.74c3 6 5.62 12.07 8.87 17.86 3.67 6.54 5.93 13.31 5.49 20.86a8.8 8.8 0 0 0 1.8 5.53l18.88 28.78c1.7 2.52 2.76 4.47-.65 6.32-2.15 1.16-2.39 3.79-4.31 5.51-6.37 5.7-14.31 5.73-21.82 7.32-5.68 1.2-11.45 1.9-17.14 3-3.42.68-5.21-.15-5.68-3.9-.73-5.91-1.86-11.78-2.81-17.67-.11-.66-.45-1.52-.17-2 3.42-5.16-.84-8.43-3-12.12-3.26-5.61-6.54-11.22-10.21-16.56-2.1-3-2.35-5.87-1.53-9.32 1.17-5 4.62-10.61 2.56-14.79-1.91-3.89-7.75-5.86-11.86-8.67-.14-.09-.29-.17-.42-.27-3.55-2.66-10.31-4.44-10.15-7.8.23-5 5.65-9 8.78-13.43 1.13-1.62 3-1.27 4.59-1.29l22.47-.06c3.12.07 4.2-.79 3.56-3.95-.59-2.9-.81-5.88-1.19-8.82zM491 225.83L441.2 234l-9.81 1.69c-2.42.51-4 .2-3.87-2.72a1.64 1.64 0 0 0 0-.5c-3.5-9.66.27-17.12 6.06-24.92 14.88-20.06 29.05-40.65 43.35-61.13 1.84-2.64 3.83-3.83 7-3.64a24.34 24.34 0 0 0 6-.32c9.29-1.73 17.49 3.36 26.44 4.14 10.26.9 10.2 1.57 12.52 11.65a24.62 24.62 0 0 0 .9 3.88c1.13 2.73 0 3.8-2.57 4.54-8.47 2.44-16.83 5.3-25.36 7.5-4.11 1.05-4.9 3-4 6.74a30.71 30.71 0 0 1 .78 10.37c-.69 6.74-6 9.58-10.29 13.39-5.92 5.32-6 5.27-2.13 12.15l4.78 9.01zm286.8 569.92c-2.91.58-2.69-1.91-3-3.46-.9-4.21-1.65-8.46-2.2-12.73-.3-2.32-1.26-2.64-3.33-2.2-4.22.89-8.5 1.42-12.72 2.3-2.67.56-3.85 0-4.21-3-1.22-10.07-2.7-20.11-4.21-30.14-.32-2.13-.29-3.26 2.31-3.77l63.57-12.72c2.07-.41 3.4.31 4.73 1.85l27.17 31.27c4.29 5.18 5.1 12.17 7.59 18.3.7 1.74-.38 2.22-2 2.47q-28.28 4.43-56.52 9l-17.18 2.83zM363.53 625.1l-.06-23.49c-.05-2.52.71-3.38 3.25-3.78 20.57-3.27 41.12-6.37 62.07-3.88 3.23.38 5.82.9 7.26 4.06 6.17 13.51 16.94 20 31.52 21 3.11.21 6.14 1.51 9.27 1.93s3.11 2.68 3.16 4.77c.06 2.49-2.13 2-3.68 2.24-10.5 1.6-21 3.52-31.53 4.61-4.58.48-4.92 2.6-3.87 5.81 1.41 4.27-.09 5.19-4.27 5.76l-65.55 9.6c-6.92 1-7.23 1-7.36-6.11-.12-7.5 0-15 0-22.49zM296.86 397l-21.45 1c-2.9.2-4.2-.81-4.75-3.58-1.94-9.75-4.39-19.42-5.91-29.23-1-6.49 1.89-12.7 3.37-18.95a37.69 37.69 0 0 1 15.8-23.31c1.72-1.17 2.85-1.71 4.79-.46l24.56 15.31a5 5 0 0 1 2.6 3.9l7.69 50.82c.51 3.28-.81 4.05-3.73 4-7.66-.1-15.32 0-23 0zm141.32-57.81l-13.37-16.93c-1.68-2.26-3.27-3.05-6.23-2.67-7.57 1-15.21 1.4-22.83 2a5.06 5.06 0 0 1-2.41-.38l-26-11.41a20.5 20.5 0 0 1 3.05-1.79c11.14-3.74 17.66-11.78 22.52-22.19 4.69-10.05 10.63-19.53 16.05-29.24 1.69-3 13.06-6.38 16-4.77a2.93 2.93 0 0 1 1.37 2.5q6.09 41.7 12.15 83.39a7.37 7.37 0 0 1-.3 1.49zM404.89 255l-22.62 41a6.22 6.22 0 0 1-2.92 2.59 29.06 29.06 0 0 0-4.87 2.51c-9.88 7.55-21.31 6.29-32.54 5.7-6.17-.33-9-5.26-6.7-10.75q5.92-14.28 11.85-28.57c.76-1.85 1.35-3.48 3.87-3.9l49.68-8.55a28.64 28.64 0 0 1 4.25-.03zm-18.33 561.26c-17.25-1.58-26.73-14.29-38.28-23.8-1.26-1-1.11-2.28-.82-3.62a60.62 60.62 0 0 1 1.34-6.35c4.78-14.07 4.33-28.41 2.49-42.86-.62-4.78-.85-9.62-1.51-14.39-.34-2.51.38-3.72 2.9-4.06l14.81-2.18c2.48-.43 3.21.68 3.52 2.83l3.69 24.11c.38 2.37-.67 4.19-1.73 6.07l-10.84 19.1c-1.51 2.51-1.09 3.6 1.49 4.76l22.17 10.3c2 .91 3.25 1.84 3 4.42-.89 8.6-1.52 17.22-2.23 25.67zM536.26 237c-8 .71-15.56-3.73-23.69-1.86-2.37.54-2-1.54-1.88-3 .35-3.31.39-6.71 1.25-9.89 1.51-5.62.3-10-4.43-13.48-4-3-5.31-6.35-.16-9.64 1.59-1 1.29-2.56 1.09-4-.23-1.81-.84-3.62-.79-5.41.09-3.59.88-6.36 5.76-5.68 6.75.94 13.57 1.36 20.38 1.78 2.45.14 3.42 1.06 3.92 3.44 2.95 14.08 8.46 27.54 9.63 42.08.37 4.56-.63 6.17-5.09 5.74a59.82 59.82 0 0 0-5.99-.08zm7.27 90.72l5 31.18 3.25 19.12a11.93 11.93 0 0 0 4.08 7.14c4.56 4.13 8.9 8.5 13.42 12.67 1.81 1.67 2 2.9-.4 4-.15.07-.31.14-.45.22-5.94 3.23-11.9 10.42-17.53 9.17-7.4-1.64-13.66-8.38-20.41-12.92a4 4 0 0 1-1.66-2.94c-1.27-8.55-3-17-2.56-25.76.12-2.33.85-3.63 2.92-4.57 3.33-1.5 6.49-3.38 9.85-4.82 2.44-1.05 2.76-2.23 1.52-4.54-2.5-4.69-4.6-9.59-7.13-14.26-1.27-2.36-1-3.9 1-5.57 2.94-2.4 5.67-5.02 9.1-8.12zm-29.84 681.43c-8.52-1.69-15.89-2.84-23.06-4.73-3.38-.88-4.31-4.87-6.13-7.57-5.84-8.69-5.77-8.8 4.83-10 3.84-.42 7.79-.45 5.16-6.54 13.74 4.97 13.36 18.15 19.2 28.84zM409.51 773.77c2.36 3.38 2.63 6.55 3.72 9.42.32.85.87 2.09-.46 2.45s-2.17-.46-2.31-1.85l-.95-10.02zM817 1180h141.6c2.81-9.45 4.14-19.18 6.75-28.08-.34-3.63-.8-6.44-.82-9.26 0-3.8-1.52-4.4-5-3.36-9.56 2.87-19.06 6.42-28.85 7.94-36.8 5.71-73.17 14.89-110.8 14.18-5.94-.12-5.86.25-4.87 6.32L817 1180zm-180.37 0h175.94c-4-25.9-9-51.65-13.72-77.43-.59-3.25-1.63-3.46-4.5-2.94l-71.27 12.68c-4.06.75-5.07-.22-5.67-4.06l-8.37-50.73c-.48-3-1.31-4.32-4.73-3.71l-48.71 8.32c-2.48.41-3.33 1.4-2.74 4 1 4.37 1.55 8.85 2.43 13.25.55 2.74.21 4.33-3.16 4.63-4.3.38-8.53 1.43-12.81 2.06-2.43.36-3.42 1.32-2.9 4 1.05 5.38 1.61 10.87 2.77 16.23.74 3.46-.45 4.32-3.68 4.5l-28.41 1.9c-3.35.16-3.84 1-2.77 4.1l13.69 41.71a15.4 15.4 0 0 0 2.63 4.75 109 109 0 0 0 15.98 16.74zM25.35 306.66c-1.36-9-2.61-18.11-3.47-27.21-.31-3.35-1.78-4.11-4.64-4.26L0 274.08v43.18l21.88-5.93c2.69-.72 3.94-1.56 3.47-4.67zm6.25-97.77c-2-6-4.35-11.9-5.51-18-1.1-5.83-4.09-6.2-9-5.71l-17 1.52v83l2.15.29c4.58.74 9.3.58 13.92 1.12 3.68.44 4.87-.67 4.8-4.54l-.25-44c0-8.5 0-8.62 8.41-9.5 2.97-.4 3.37-1.51 2.48-4.18z" fill="#e5e7eb"/><path d="M718.53 515.12c-9.47 3.07-18.31 6.59-27.88 7.13-2.69.15-2.78 2-2.6 4.29a187.67 187.67 0 0 1 .52 26.7L682 541.38l-10.27-18.83c-1.33-2.6-2.63-2.79-5-1.51-4.84 2.57-9.92 4.72-14.7 7.39a9.3 9.3 0 0 1-8.93.51c-9.65-4-19.34-8-29.18-11.54-3.58-1.29-4.92-3.21-5-6.77-.1-5.16-.48-10.31-.67-15.46a7.07 7.07 0 0 0-3.89-6.38c-6-3.53-11.68-7.7-17.78-11.08-8.93-5-16.14-11.42-21.39-20.27-1.68-2.84-2.85-5.38-2.56-8.74.53-6.13.35-12.34 1.19-18.42.63-4.58-.78-7.62-4.29-10.24-1.68-1.26-3.47-2.55-4.46-4.85l16.22-9.83c2.3-1.45 3-.69 3.63 1.66l6.13 23.16c.64 2.56 1.55 3.49 4.44 3l49.63-8.74c3.66-.6 3.68-2.34 3.12-5.14l-5.19-26.44c-.41-2-.07-3.11 1.75-4 2-1 2.25.55 2.75 1.7 8.58 19.72 22.3 36.22 33.92 54l45.88 68.43c.45.63.77 1.38 1.18 2.13zm-9.16 8.34c1.23-.33 1.66 1.57 2.32 3.34 3.3 8.88 6.94 17.65 9.92 26.64 8.69 26.26 23.79 49.37 35.89 73.95 15.21 30.89 35.82 58.38 54.26 87.25 6.37 10 6.35 10.06-5.34 12.38l-55.1 11.23c-3.94.86-4.41-.57-4.88-3.75l-13.5-91.12c-2.4-18.57-7.6-36.32-12.55-54.2a13.38 13.38 0 0 0-4.74-7.3c-6.24-5-12.26-10.25-18.41-15.35-1.44-1.21-2.59-2.35-2.71-4.46l-2-31.9c-.22-2.91.59-4.18 3.66-4.47 3.97-.38 7.88-1.31 13.18-2.24zM600.31 340c1.7 0 2.15 1.22 2.8 2.1l29.08 39.4c1.63 2.19 1.46 3.49-1.07 4.46-2.83 1.09-3.33 2.95-2.67 5.89 1.77 7.94 3.14 16 4.74 23.93.51 2.53.73 4.54-2.68 5.11l-41.71 7.26c-3.12.59-4.34-.12-4.57-3.1a4.93 4.93 0 0 0-.33-.93c-2.14-8-2.8-16.91-6.84-23.82s-11.35-11.87-17.38-17.52a12 12 0 0 1-3.91-7.22c-.89-5.76-1.82-11.52-3.07-17.21-.82-3.73.5-5 4.1-5.46 8.24-1.16 16.39-2.91 24.63-4 6-.81 11.26-2.7 15.75-6.75a25.56 25.56 0 0 1 3.13-2.14zm24.38 234.63l-20.88-1.89c-1.95-.21-4.69.08-4.17-3.44 2.25-14.92 2.65-30.12 7.4-44.69 1.39-4.27 2.63-4.55 6.4-2.93 10.09 4.31 20.41 8.1 30.55 12.3a7.91 7.91 0 0 0 7.54-.38c4.22-2.33 8.65-4.28 12.85-6.65 2.69-1.52 4.2-1.4 5.78 1.61q8.37 15.91 17.28 31.52c1.93 3.37.7 4.2-2.33 4.69q-22.36 3.59-44.74 7.23l-15.68 2.63zm133.23 25.28c-2.11-11.52-4.54-22.41-5.94-33.43-.73-5.67-3-8.75-8.39-9.85-4.19-.85-5.35-3-3.12-6.91 2-3.57 1.88-9.57 5.22-10.76 3-1.1 6.47 3.71 9.62 6 1.89 1.38 4.16 1.61 6 3.19 7 6 11.13 11.92 6.34 21.89-3.61 7.52-4.85 16.18-7.18 24.33-.47 1.73-.65 3.63-2.55 5.54zM784 588.76c-1.7-3.69-1.61-7.16-2-10.52 1.05 3.21 6.56 5.5 2 10.52z" fill="#4a5740"/><path d="M512.29 46.13l-12.8-13.33-20-20.91 31 8L504.53 1H0v176.82l11.9-.82q32.87-2.24 65.73-4.4 34.35-2.31 68.7-4.6l52.29-3.39q33.38-2.25 66.71-4.61l61.72-4.41 52.76-3.7c3.71-.3 4.94 1 5.49 4.35l5.13 28.93c1.65 9.65 7.08 13.45 16.37 11.52a35 35 0 0 1 3.92-.7c3.62-.32 5.49-1.7 5.54-5.89.13-10 .93-19.93 1.2-29.91.09-3.24 1.26-6.87-1-9.73a52.14 52.14 0 0 1-11.06-39.57 1.65 1.65 0 0 0-.06-.49c-.65-2.77.49-4.69 2.58-6.51q10.72-9.34 21.22-19c1.85-1.71 3.49-1.81 5.84-1.16l48.08 13c8.49 2.55 16.41 2.87 24.68-.36 2.62-1 3.67-2.15 3.76-4.89.2-6.24-2.4-11.78-4.69-17.19-3.42-8.07-4-14.45 4.92-19.37 3.58-1.92 3.72-5.57.56-8.79z" fill="#e5e7eb"/><g fill="#1d271e"><path d="M795.89 487.42a32 32 0 0 0-7.71-3.2 38 38 0 0 1-6.42-2.48 9.42 9.42 0 0 1-3.41-2.73 5.89 5.89 0 0 1-1.06-3.5 5.74 5.74 0 0 1 2-4.59 8.14 8.14 0 0 1 5.47-1.71 11.47 11.47 0 0 1 10 5.62 15.82 15.82 0 0 1 2.15 6.21h2.35q0-5.6 0-8.74c0-2.1.11-3.83.26-5.21h-2.35a4.58 4.58 0 0 1-.68 1.89 1.35 1.35 0 0 1-1.14.58 3.17 3.17 0 0 1-1.24-.26l-1.35-.5a26.47 26.47 0 0 0-4.18-1.47 19.46 19.46 0 0 0-4.89-.53 17.63 17.63 0 0 0-7.23 1.41 10.51 10.51 0 0 0-4.86 4.15 11.81 11.81 0 0 0-1.67 6.32 10.83 10.83 0 0 0 3.2 8q3.21 3.21 10.15 5.09a32.57 32.57 0 0 1 6.06 2.35 9.5 9.5 0 0 1 3.39 2.83 6.43 6.43 0 0 1 1.09 3.7 6.3 6.3 0 0 1-2.27 5.12 9.6 9.6 0 0 1-6.33 1.89 12.68 12.68 0 0 1-6.56-1.65 11.86 11.86 0 0 1-4.47-4.86 21.27 21.27 0 0 1-2.15-7.68h-2.41q0 6.18-.06 10.19-.06 4.01-.23 6.17h2.35a4.81 4.81 0 0 1 .68-1.91 1.39 1.39 0 0 1 1.2-.62 4.47 4.47 0 0 1 1.15.21 6.44 6.44 0 0 1 1.38.56 37.1 37.1 0 0 0 4.68 1.5 23.16 23.16 0 0 0 5.44.56 20 20 0 0 0 8.16-1.53 12 12 0 0 0 5.29-4.33 13.09 13.09 0 0 0 .47-12.56 12 12 0 0 0-4.25-4.29zm40.48 13.8l-2.06-1.17a11.45 11.45 0 0 1-3.68 4.44 8.92 8.92 0 0 1-5.09 1.44 7.32 7.32 0 0 1-6.38-3.27q-2.26-3.26-2.27-9.15v-1h19.36q.12-7.47-3.12-11-3.24-3.53-9.71-3.5a16.19 16.19 0 0 0-8 1.88 13 13 0 0 0-5.27 5.56 18.89 18.89 0 0 0-1.88 8.68 19.31 19.31 0 0 0 1.77 8.53 12.4 12.4 0 0 0 5 5.54 16.46 16.46 0 0 0 16-.42 14 14 0 0 0 5.33-6.56zm-13.06-20.89a4.46 4.46 0 0 1 4.23 2.68 16 16 0 0 1 1.36 7.21h-12a14.64 14.64 0 0 1 1.95-7.3 5.22 5.22 0 0 1 4.46-2.59zM876.92 507a3.65 3.65 0 0 1-2.8-1 5.09 5.09 0 0 1-.79-3.24v-14a18.66 18.66 0 0 0-.21-2.8 8.9 8.9 0 0 1 2.41-2.88 6.34 6.34 0 0 1 3.8-1.27 3.91 3.91 0 0 1 3.35 1.59 7.71 7.71 0 0 1 1.18 4.65v14.71a5.38 5.38 0 0 1-.74 3.27 3.41 3.41 0 0 1-2.67 1v2.29q5.82-.22 7.7-.23 2.18 0 9.48.23V507c-2.12 0-3.58-.37-4.39-1a3.89 3.89 0 0 1-1.2-3.24v-13.84c0-3.53-.79-6.22-2.36-8.09a8.42 8.42 0 0 0-6.82-2.79 10.85 10.85 0 0 0-10.14 6 8.88 8.88 0 0 0-1.75-3.31Q868.62 478 864 478a11.51 11.51 0 0 0-5.74 1.44 10 10 0 0 0-3.62 3.48v-4.75a42.14 42.14 0 0 1-8.83.83c-1.29 0-2.35 0-3.17-.06l-1.77-.12v2.3c2.12.07 3.59.5 4.41 1.26s1.24 2.07 1.24 3.91v16.42a3.91 3.91 0 0 1-1.18 3.27c-.78.61-2.27.93-4.47 1v2.29h2.59q3.48-.18 7.18-.18l5.47.18H858V507a3.34 3.34 0 0 1-2.62-1 5.38 5.38 0 0 1-.74-3.27v-17.17a10.09 10.09 0 0 1 2.44-2.64 5.91 5.91 0 0 1 3.5-1.12 4 4 0 0 1 3.42 1.59 7.78 7.78 0 0 1 1.2 4.61v14.71a5.39 5.39 0 0 1-.73 3.27 3.42 3.42 0 0 1-2.68 1v2.29l7.65-.23 7.48.23zm29.48-35.47a5 5 0 0 0 3.41 1.27 5.18 5.18 0 0 0 3.56-1.27 4.2 4.2 0 0 0 1.44-3.32 4.29 4.29 0 0 0-1.44-3.35 5.11 5.11 0 0 0-3.56-1.3 5 5 0 0 0-3.41 1.27 4.2 4.2 0 0 0-1.47 3.38 4.13 4.13 0 0 0 1.47 3.32zm13.24 37.75V507a7.84 7.84 0 0 1-4.24-.94c-.82-.59-1.24-1.69-1.24-3.3v-24.55a39.85 39.85 0 0 1-8.88.83q-2.47 0-4.89-.18v2.3c2.12.07 3.59.51 4.42 1.29a5.2 5.2 0 0 1 1.23 3.88v16.42a4.84 4.84 0 0 1-.56 2.56 2.94 2.94 0 0 1-1.76 1.27 14.07 14.07 0 0 1-3.33.41v2.29q7.59-.22 9.77-.23 2.18-.01 9.48.23zM936.58 483v-4.78a41.57 41.57 0 0 1-8.82.83q-2.07 0-5-.18v2.3a9.31 9.31 0 0 1 3.3.58 3.52 3.52 0 0 1 1.79 1.62 6.63 6.63 0 0 1 .56 3v16.42a3.91 3.91 0 0 1-1.18 3.27c-.78.61-2.27.93-4.47 1v2.29h2.59q3.42-.18 7.18-.18 3 0 5.83.18h1.88V507a4 4 0 0 1-2.91-.94 5.05 5.05 0 0 1-.8-3.3v-17.19a9.67 9.67 0 0 1 2.5-2.65 6.37 6.37 0 0 1 3.68-1.12 4.59 4.59 0 0 1 3.77 1.59 7.46 7.46 0 0 1 1.29 4.77v14.59A4.94 4.94 0 0 1 947 506a4.1 4.1 0 0 1-3 1v2.29l8.06-.23 9.36.23V507c-2.08 0-3.52-.37-4.3-1a3.92 3.92 0 0 1-1.18-3.24v-13.84c0-3.53-.84-6.22-2.53-8.09a9.19 9.19 0 0 0-7.18-2.79 11.82 11.82 0 0 0-5.94 1.44 10.92 10.92 0 0 0-3.71 3.52zM981 510.11a17.06 17.06 0 0 0 7.95-1.77 12.38 12.38 0 0 0 5.32-5.35 18.68 18.68 0 0 0 1.91-8.89 18.88 18.88 0 0 0-1.88-8.88 12.41 12.41 0 0 0-5.29-5.39 18.33 18.33 0 0 0-15.8 0 12.77 12.77 0 0 0-5.33 5.39 21.47 21.47 0 0 0 0 17.77 12.39 12.39 0 0 0 5.3 5.35 16.67 16.67 0 0 0 7.82 1.77zm-5.65-23.8a10.08 10.08 0 0 1 2.27-4.54 4.7 4.7 0 0 1 3.44-1.44 4.8 4.8 0 0 1 3.47 1.44 9.89 9.89 0 0 1 2.3 4.54 30.76 30.76 0 0 1 .82 7.79 30.25 30.25 0 0 1-.82 7.71 10 10 0 0 1-2.3 4.53 4.75 4.75 0 0 1-3.47 1.47 4.68 4.68 0 0 1-3.41-1.47 10 10 0 0 1-2.3-4.53 30.25 30.25 0 0 1-.82-7.71 30.76 30.76 0 0 1 .77-7.79zm44.38 22.97V507c-2.12 0-3.59-.35-4.41-.94s-1.24-1.69-1.24-3.3v-39.55a40.08 40.08 0 0 1-8.82.82c-1.73 0-3.4-.06-5-.17v2.29c2.16 0 3.65.47 4.48 1.29a5.34 5.34 0 0 1 1.23 3.89v31.42a5.17 5.17 0 0 1-.53 2.56 2.83 2.83 0 0 1-1.76 1.27 14.87 14.87 0 0 1-3.42.41v2.29q7.59-.22 9.89-.23 2.3-.01 9.58.23zm10.97-1.05a15.06 15.06 0 0 0 7.63 1.88 14.91 14.91 0 0 0 8.41-2.3 14 14 0 0 0 5.24-6.59l-2.06-1.17a11.45 11.45 0 0 1-3.68 4.44 8.92 8.92 0 0 1-5.09 1.44 7.29 7.29 0 0 1-6.38-3.27c-1.52-2.17-2.27-5.22-2.27-9.15v-1h19.36q.12-7.47-3.12-11-3.24-3.53-9.74-3.51a16.17 16.17 0 0 0-8 1.88 13 13 0 0 0-5.27 5.56 18.89 18.89 0 0 0-1.88 8.68 19.45 19.45 0 0 0 1.76 8.53 12.51 12.51 0 0 0 5.09 5.58zm8.21-27.9a4.47 4.47 0 0 1 4.24 2.68 16.17 16.17 0 0 1 1.35 7.21h-12a14.85 14.85 0 0 1 2-7.3 5.25 5.25 0 0 1 4.41-2.59zM862.27 567.1c-2.39-1.78-5.91-2.83-10.53-3.15v-.12c3.57-.62 6.27-1.78 8.12-3.47a8.3 8.3 0 0 0 2.76-6.41 8.13 8.13 0 0 0-3.73-7.24c-2.5-1.65-6.13-2.47-10.92-2.47-.9 0-1.81 0-2.71.06q-2.82.06-7.71.06-8.12 0-10.41-.12v2.29a19.44 19.44 0 0 1 4.26.5 2.43 2.43 0 0 1 1.68 1.39 8.78 8.78 0 0 1 .41 3.17v27a9 9 0 0 1-.41 3.23 2.34 2.34 0 0 1-1.65 1.36 21.12 21.12 0 0 1-4.29.47v2.29q2.82-.18 10.47-.18c2.87 0 5.57 0 8.12.12 1.06 0 2.26.06 3.59.06a25.29 25.29 0 0 0 8.86-1.38 12.83 12.83 0 0 0 5.68-3.91 9.69 9.69 0 0 0 2-6.18 8.67 8.67 0 0 0-3.59-7.37zm-15.89-20.57c2.55 0 4.46.64 5.74 2a8.59 8.59 0 0 1 1.91 6 9.66 9.66 0 0 1-1.94 6.41 6.86 6.86 0 0 1-5.53 2.3h-4.12v-16.71zm7.71 34.63q-2.42 2.33-7 2.33a8.66 8.66 0 0 1-3-.38 2.24 2.24 0 0 1-1.3-1.42 10.52 10.52 0 0 1-.35-3.14v-13.24H847q4.71 0 7.09 2.32 2.38 2.32 2.38 6.68c.03 3.02-.77 5.31-2.38 6.85zm38.37-26.51a9.56 9.56 0 0 0-5.09 1.5 10.85 10.85 0 0 0-3.56 3.6v-4.92a38.64 38.64 0 0 1-8.54.82h-3.17l-2.06-.12v2.29c2.08.08 3.54.5 4.38 1.27a5.1 5.1 0 0 1 1.27 3.91v16.42a4.88 4.88 0 0 1-.53 2.44 3.11 3.11 0 0 1-1.74 1.33 12.07 12.07 0 0 1-3.38.47v2.29l9.82-.23 9.36.17 1.88.06v-2.29a17.05 17.05 0 0 1-4.32-.53 4.26 4.26 0 0 1-2.27-1.44 4.61 4.61 0 0 1-.7-2.74v-16.67a10.29 10.29 0 0 1 1.41-1.92 7.56 7.56 0 0 1 2.29-1.65 5.92 5.92 0 0 1 2.42-.58 2.2 2.2 0 0 1 1.32.32 1.08 1.08 0 0 1 .44.91 2.5 2.5 0 0 1-.15.88c-.09.28-.2.55-.32.83a4.91 4.91 0 0 0-.56 1.15 3.68 3.68 0 0 0-.2 1.2 2.92 2.92 0 0 0 .88 2.24 3.3 3.3 0 0 0 2.35.82 4.24 4.24 0 0 0 3.47-1.59 6.28 6.28 0 0 0 1.3-4.12 6.06 6.06 0 0 0-1.62-4.53 6 6 0 0 0-4.38-1.59zm31.63 26.46a9 9 0 0 1-5.09 1.44 7.32 7.32 0 0 1-6.39-3.27q-2.26-3.27-2.26-9.15v-1h19.36q.1-7.47-3.12-11-3.22-3.53-9.71-3.51a16.13 16.13 0 0 0-8 1.89 12.88 12.88 0 0 0-5.26 5.56 18.74 18.74 0 0 0-1.89 8.68 19.34 19.34 0 0 0 1.77 8.53 12.43 12.43 0 0 0 5 5.53 16.44 16.44 0 0 0 16-.41 14 14 0 0 0 5.23-6.59l-2.06-1.18a11.54 11.54 0 0 1-3.58 4.48zM916.76 557a4.47 4.47 0 0 1 4.24 2.68 16.11 16.11 0 0 1 1.35 7.21h-12c.19-3.2.83-5.64 2-7.3a5.21 5.21 0 0 1 4.41-2.59zm37.78-1.52v2.29a4.58 4.58 0 0 1 3.06 1.39 4.35 4.35 0 0 1 1 3.06 12.22 12.22 0 0 1-1.09 4.44l-4.08 9.67-6.34-13.61a6.88 6.88 0 0 1-.79-2.83 1.66 1.66 0 0 1 1-1.53 7.77 7.77 0 0 1 2.83-.59v-2.29l-8.71.23c-3.61 0-6.63-.07-9.07-.23v2.29a6.87 6.87 0 0 1 3.33.94 5.68 5.68 0 0 1 2 2.77l11.65 24.89h2.18l9.3-21.71a13.53 13.53 0 0 1 2.88-4.83 8.23 8.23 0 0 1 4.06-2.06v-2.29l-5.94.17c-1.6 0-4.02-.05-7.27-.17zm47.02 27.01a9 9 0 0 1-1.45.73 3.69 3.69 0 0 1-1.38.27 1.61 1.61 0 0 1-1.38-.59 3.25 3.25 0 0 1-.44-1.94v-14.42a16.21 16.21 0 0 0-1.21-6.8 7.9 7.9 0 0 0-3.79-3.82 15.9 15.9 0 0 0-6.89-1.27 22.16 22.16 0 0 0-6.91 1 10.32 10.32 0 0 0-4.62 2.79 6 6 0 0 0-1.65 4.12 4 4 0 0 0 1.15 3 4.43 4.43 0 0 0 3.2 1.09 5.1 5.1 0 0 0 2.95-.82 2.55 2.55 0 0 0 1.17-2.18 2.6 2.6 0 0 0-.32-1.24l-.85-1.41a7.63 7.63 0 0 1-.53-1 2.13 2.13 0 0 1-.24-.91c0-.63.43-1.14 1.3-1.53A8 8 0 0 1 983 557a5.78 5.78 0 0 1 4.35 1.47 6.29 6.29 0 0 1 1.42 4.53v2.67a2.74 2.74 0 0 1-.86 1.42 6.91 6.91 0 0 1-2.23 1.38c-.88.36-2.17.79-3.86 1.3a56.82 56.82 0 0 0-5.76 2 10.87 10.87 0 0 0-3.86 2.73 6.73 6.73 0 0 0-1.62 4.68 6.92 6.92 0 0 0 2.33 5.5 9.35 9.35 0 0 0 6.38 2 11.52 11.52 0 0 0 5.71-1.39 12.08 12.08 0 0 0 3.82-3.49 4.91 4.91 0 0 0 1.51 3.52 7.28 7.28 0 0 0 4.85 1.36 13.33 13.33 0 0 0 4.33-.68 10.17 10.17 0 0 0 3.44-2l-1-1.89zm-14.95-1a6 6 0 0 1-3.3.94 4 4 0 0 1-3.09-1.18 4.68 4.68 0 0 1-1.08-3.29 5.26 5.26 0 0 1 .82-3 6.56 6.56 0 0 1 1.94-2l3-1.7 2.83-1.5a3 3 0 0 0 1-1v10.76a8.83 8.83 0 0 1-2.12 1.97zm41.01-26.84a9.61 9.61 0 0 0-5.09 1.5 11 11 0 0 0-3.56 3.6v-4.92a38.48 38.48 0 0 1-8.53.82h-3.18l-2.06-.12v2.29c2.08.08 3.54.5 4.39 1.27s1.26 2.07 1.26 3.91v16.42a4.77 4.77 0 0 1-.53 2.44 3.05 3.05 0 0 1-1.73 1.33 12.21 12.21 0 0 1-3.39.47v2.29l9.83-.23 9.36.17 1.88.06v-2.29a17.14 17.14 0 0 1-4.33-.53 4.23 4.23 0 0 1-2.26-1.44 4.61 4.61 0 0 1-.71-2.74v-16.67a10.35 10.35 0 0 1 1.42-1.92 7.44 7.44 0 0 1 2.29-1.65 5.88 5.88 0 0 1 2.41-.58 2.23 2.23 0 0 1 1.33.32 1.08 1.08 0 0 1 .44.91 2.5 2.5 0 0 1-.15.88l-.32.83a4.55 4.55 0 0 0-.56 1.15 3.7 3.7 0 0 0-.21 1.2 2.92 2.92 0 0 0 .89 2.24 3.28 3.28 0 0 0 2.35.82 4.24 4.24 0 0 0 3.47-1.59 6.33 6.33 0 0 0 1.3-4.12 6.06 6.06 0 0 0-1.62-4.53 6 6 0 0 0-4.39-1.59zm40.69 27.69a5.38 5.38 0 0 1-1.2-3.91v-38.6a41.74 41.74 0 0 1-8.65.82 71.07 71.07 0 0 1-5.06-.18v2.3q3.06.06 4.32 1.26A5.2 5.2 0 0 1 1059 548v9.42a6.87 6.87 0 0 0-.83-.77 8.3 8.3 0 0 0-2.88-1.45 13.11 13.11 0 0 0-15.89 7.1 20.25 20.25 0 0 0-1.7 8.76 21.32 21.32 0 0 0 1.5 8.33 12 12 0 0 0 4.32 5.47 11.43 11.43 0 0 0 6.59 1.92 10.1 10.1 0 0 0 6.06-1.74 9.39 9.39 0 0 0 2.83-3.29v4.85a40.84 40.84 0 0 1 8.59-.83l5 .18v-2.29c-2.05-.09-3.47-.51-4.28-1.32zm-11.41-.5a5.84 5.84 0 0 1-3.86 1.35 5.11 5.11 0 0 1-3.73-1.47 9.26 9.26 0 0 1-2.27-4.23 26.07 26.07 0 0 1-.76-6.83c0-4.28.64-7.52 1.94-9.74a6.19 6.19 0 0 1 5.65-3.32 7 7 0 0 1 3.44.82 5.51 5.51 0 0 1 1.68 1.39V579a8.16 8.16 0 0 1-2.09 2.84zM690.32 314.56q-14 0-20.31-.17v2.29a19.46 19.46 0 0 1 4.27.5 2.47 2.47 0 0 1 1.68 1.39 9 9 0 0 1 .41 3.17v27a8.66 8.66 0 0 1-.44 3.23 2.46 2.46 0 0 1-1.65 1.36 20.69 20.69 0 0 1-4.27.47v2.29q7.89-.18 11-.18l8.3.06 3.88.12v-2.29a26.37 26.37 0 0 1-5.15-.53 3.39 3.39 0 0 1-2.15-1.39 6.31 6.31 0 0 1-.59-3.14v-12h3.3a6.62 6.62 0 0 1 3.65.88 6.1 6.1 0 0 1 2.18 2.8 15.7 15.7 0 0 1 1 4.91h2.24q-.35-6-.35-9.71v-1.29a31.22 31.22 0 0 1-.09-3.21l.21-4.32h-2.24a12.12 12.12 0 0 1-1 4.2 6.23 6.23 0 0 1-2.21 2.53 6.14 6.14 0 0 1-3.38.88h-3.3v-17.55H692a9.62 9.62 0 0 1 4.77 1.06 8.48 8.48 0 0 1 3.18 3.44 23.69 23.69 0 0 1 2.12 6.39h2.41a86.38 86.38 0 0 1-1.06-13.36q-4.57.18-13.1.17zm37.3 41.49v-2.29a8.27 8.27 0 0 1-4.41-.95c-.82-.58-1.23-1.68-1.23-3.29V310a40.18 40.18 0 0 1-8.83.83c-1.73 0-3.39-.06-5-.18v2.3c2.15 0 3.65.47 4.47 1.29a5.34 5.34 0 0 1 1.23 3.89v31.42a5.18 5.18 0 0 1-.52 2.56 2.83 2.83 0 0 1-1.77 1.26 14.09 14.09 0 0 1-3.41.42v2.29l9.88-.23 9.59.2zm21.75-18.8a7.07 7.07 0 0 1-2.24 1.38c-.88.36-2.17.79-3.85 1.3a56.25 56.25 0 0 0-5.77 2 10.74 10.74 0 0 0-3.85 2.73 6.73 6.73 0 0 0-1.62 4.68 6.91 6.91 0 0 0 2.32 5.5 9.35 9.35 0 0 0 6.39 2 11.48 11.48 0 0 0 5.7-1.38 12.08 12.08 0 0 0 3.82-3.49 4.91 4.91 0 0 0 1.51 3.52 7.31 7.31 0 0 0 4.86 1.35 13.31 13.31 0 0 0 4.32-.67 10.17 10.17 0 0 0 3.44-2l-1-1.89-.35.3a8.88 8.88 0 0 1-1.44.73 3.74 3.74 0 0 1-1.39.27 1.63 1.63 0 0 1-1.38-.59 3.32 3.32 0 0 1-.44-1.94v-14.36a16 16 0 0 0-1.21-6.8 7.9 7.9 0 0 0-3.79-3.82 15.87 15.87 0 0 0-6.89-1.27 22.51 22.51 0 0 0-6.91 1 10.45 10.45 0 0 0-4.62 2.8 6 6 0 0 0-1.65 4.12 4 4 0 0 0 1.15 3 4.44 4.44 0 0 0 3.21 1.09 5 5 0 0 0 2.94-.83 2.53 2.53 0 0 0 1.18-2.17 2.5 2.5 0 0 0-.33-1.24l-.85-1.41a9.12 9.12 0 0 1-.53-1 2.13 2.13 0 0 1-.24-.91c0-.63.44-1.14 1.3-1.53a7.84 7.84 0 0 1 3.29-.59 5.79 5.79 0 0 1 4.36 1.47 6.34 6.34 0 0 1 1.41 4.53v2.67a2.76 2.76 0 0 1-.85 1.45zm-1.27 14.39a6 6 0 0 1-3.29.94 4 4 0 0 1-3.09-1.18 4.63 4.63 0 0 1-1.09-3.29 5.26 5.26 0 0 1 .82-3 6.56 6.56 0 0 1 1.94-1.95l3-1.7 2.82-1.5a3 3 0 0 0 1-1v10.76a8.83 8.83 0 0 1-2.11 1.92zm17.77 11.12q0 3.36 3.45 5.35c2.29 1.34 5.48 2 9.56 2a25.87 25.87 0 0 0 9.56-1.61 15.66 15.66 0 0 0 6.47-4.48 9.94 9.94 0 0 0 2.39-6.56 7.12 7.12 0 0 0-2.74-6q-2.73-2.08-7.85-2.09h-6.54a5.62 5.62 0 0 1-2.91-.62 1.92 1.92 0 0 1-1-1.73 2.83 2.83 0 0 1 .47-1.59 6 6 0 0 1 1.29-1.29 21.78 21.78 0 0 0 2.18.11 16.92 16.92 0 0 0 6.51-1.14 8.83 8.83 0 0 0 4.14-3.36 9.28 9.28 0 0 0 1.42-5.15 9.47 9.47 0 0 0-1.41-5.24 7.65 7.65 0 0 1 1.29-1.14 2 2 0 0 1 1.06-.44.82.82 0 0 1 .82.53 16.28 16.28 0 0 1 .59 1.58 13.74 13.74 0 0 0 1.21 2.3 2 2 0 0 0 1.73.71 2.47 2.47 0 0 0 2.06-1 4.58 4.58 0 0 0 .77-2.83 4.15 4.15 0 0 0-1.15-3.12 4.25 4.25 0 0 0-3.09-1.12 8.25 8.25 0 0 0-4.29 1.24 9.79 9.79 0 0 0-2.24 1.83 9.66 9.66 0 0 0-2.94-1.92 16.51 16.51 0 0 0-6.42-1.15c-3.88 0-6.92.86-9.12 2.56a8.59 8.59 0 0 0-3.29 7.21 8.44 8.44 0 0 0 3.29 7.12 11.9 11.9 0 0 0 5 2.15A14.44 14.44 0 0 0 772 347a5.77 5.77 0 0 0-1.41 3.76 4.56 4.56 0 0 0 2.27 4c.14.09.3.15.45.23a15.25 15.25 0 0 0-5.37 3.18 6.36 6.36 0 0 0-2.07 4.59zm10.86-33.87a4.16 4.16 0 0 1 7-.05 14.48 14.48 0 0 1 0 11.38 4.24 4.24 0 0 1-7 0 10.92 10.92 0 0 1-1.15-5.62 11.3 11.3 0 0 1 1.15-5.71zm-3.47 29.16a6.9 6.9 0 0 1 2.11-2.22 14 14 0 0 0 3.45.4h6.36a6.68 6.68 0 0 1 4 1 3.66 3.66 0 0 1 1.38 3.15 5.89 5.89 0 0 1-1.38 3.85 9.8 9.8 0 0 1-3.65 2.68 12.91 12.91 0 0 1-5.21 1 9.11 9.11 0 0 1-5.88-1.71 5.77 5.77 0 0 1-2.12-4.77 6.52 6.52 0 0 1 .94-3.38zm48.58-2v-2.29a8.28 8.28 0 0 1-4.42-.95c-.82-.58-1.23-1.68-1.23-3.29V310a40.18 40.18 0 0 1-8.83.83c-1.73 0-3.39-.06-5-.18v2.3q3.24.06 4.47 1.29a5.34 5.34 0 0 1 1.24 3.89v31.42a5.17 5.17 0 0 1-.53 2.56 2.8 2.8 0 0 1-1.77 1.26 14.09 14.09 0 0 1-3.41.42v2.29l9.88-.23 9.6.2zm10.97-1.05a16.51 16.51 0 0 0 16-.41 14 14 0 0 0 5.23-6.59l-2.04-1.19a11.43 11.43 0 0 1-3.67 4.44 8.88 8.88 0 0 1-5.09 1.45 7.32 7.32 0 0 1-6.39-3.27q-2.26-3.27-2.26-9.15v-1H854q.1-7.47-3.12-11-3.22-3.53-9.71-3.51a16.13 16.13 0 0 0-8 1.89 12.88 12.88 0 0 0-5.26 5.56 18.74 18.74 0 0 0-1.88 8.68 19.34 19.34 0 0 0 1.76 8.53 12.43 12.43 0 0 0 5.02 5.57zm8.19-27.9a4.47 4.47 0 0 1 4.24 2.68 16.1 16.1 0 0 1 1.35 7.2h-12c.19-3.19.83-5.63 1.95-7.29a5.23 5.23 0 0 1 4.46-2.59zm36.8 28.9l1.88.06v-2.29a17.05 17.05 0 0 1-4.32-.53 4.22 4.22 0 0 1-2.27-1.45 4.55 4.55 0 0 1-.7-2.73v-16.63a10 10 0 0 1 1.41-1.92 7.44 7.44 0 0 1 2.29-1.65 5.88 5.88 0 0 1 2.42-.58 2.22 2.22 0 0 1 1.32.32 1.08 1.08 0 0 1 .44.91 2.5 2.5 0 0 1-.15.88l-.32.83a4.55 4.55 0 0 0-.56 1.15 3.7 3.7 0 0 0-.21 1.2 2.92 2.92 0 0 0 .89 2.24 3.3 3.3 0 0 0 2.35.82 4.24 4.24 0 0 0 3.47-1.59 6.28 6.28 0 0 0 1.3-4.12 6.06 6.06 0 0 0-1.62-4.53 6 6 0 0 0-4.42-1.59 9.56 9.56 0 0 0-5.09 1.5 10.85 10.85 0 0 0-3.56 3.6V325a38.64 38.64 0 0 1-8.54.82c-1.25 0-2.31 0-3.17-.05l-2.06-.12v2.29c2.07.08 3.54.5 4.38 1.27s1.26 2.07 1.26 3.91v16.42a4.77 4.77 0 0 1-.53 2.44 3.05 3.05 0 0 1-1.73 1.33 12.13 12.13 0 0 1-3.38.47v2.29l9.82-.23 9.4.16zm-118.63 35l-7 .18c-2.27 0-5.55-.06-9.82-.18v2.3a9 9 0 0 1 4.88 1.26 3.89 3.89 0 0 1 1.56 3.42 14.68 14.68 0 0 1-1.56 5.62l-7.77 18.4-10.54-23.27a5.85 5.85 0 0 1-.8-3.2 2.18 2.18 0 0 1 1.65-1.59 16.48 16.48 0 0 1 4.39-.62V391q-3.88.18-11.36.18c-3.77 0-6.49 0-8.18-.06l-2.77-.12v2.3a7.69 7.69 0 0 1 4.27 1.26 10 10 0 0 1 2.85 3.92l15.95 34.6H737l13.77-31.6a21.9 21.9 0 0 1 2.35-4.5 9.76 9.76 0 0 1 2.62-2.53 8.07 8.07 0 0 1 3.39-1.15zm21.89 40.73a12.46 12.46 0 0 0 5.32-5.36 18.64 18.64 0 0 0 1.91-8.88 18.9 18.9 0 0 0-1.88-8.89 12.39 12.39 0 0 0-5.29-5.38 18.24 18.24 0 0 0-15.8 0 12.75 12.75 0 0 0-5.32 5.38 18.53 18.53 0 0 0-1.94 8.89 18.75 18.75 0 0 0 1.91 8.88 12.47 12.47 0 0 0 5.3 5.36 16.79 16.79 0 0 0 7.85 1.76 17.18 17.18 0 0 0 7.94-1.76zm-13.6-6.54a30.17 30.17 0 0 1-.82-7.7 30.9 30.9 0 0 1 .82-7.8 10 10 0 0 1 2.27-4.53 4.7 4.7 0 0 1 3.44-1.44 4.8 4.8 0 0 1 3.47 1.44 9.8 9.8 0 0 1 2.3 4.53 30.9 30.9 0 0 1 .82 7.8 30.17 30.17 0 0 1-.82 7.7 10.05 10.05 0 0 1-2.3 4.54 4.75 4.75 0 0 1-3.47 1.47 4.68 4.68 0 0 1-3.41-1.47 10.05 10.05 0 0 1-2.3-4.54zm44.43 5.18c-2.12 0-3.59-.35-4.41-.94s-1.24-1.69-1.24-3.29v-39.55a40 40 0 0 1-8.82.83q-2.59 0-5-.18v2.29c2.16 0 3.65.47 4.48 1.3a5.31 5.31 0 0 1 1.23 3.88v31.43a5.19 5.19 0 0 1-.53 2.56 2.82 2.82 0 0 1-1.76 1.26 14.33 14.33 0 0 1-3.42.41v2.3q7.59-.24 9.89-.24 2.3 0 9.59.24zm34.6 2.12l5 .18v-2.3a6.41 6.41 0 0 1-4.29-1.26 5.17 5.17 0 0 1-1.3-3.92V401.6a37.41 37.41 0 0 1-8.23.82c-1.57 0-3.08-.06-4.54-.18v2.3a4.81 4.81 0 0 1 3.59 1.23 5.76 5.76 0 0 1 1.06 3.89v16.22a8.28 8.28 0 0 1-2.44 2.76 6.28 6.28 0 0 1-3.56 1.09 4.37 4.37 0 0 1-3.59-1.59 7.35 7.35 0 0 1-1.29-4.71V401.6a41.27 41.27 0 0 1-8.65.82 67.82 67.82 0 0 1-5.06-.18v2.3c2.11 0 3.58.45 4.38 1.23a5.39 5.39 0 0 1 1.21 4v12.94c0 3.5.82 6.17 2.47 8s4 2.79 7.18 2.79a11.23 11.23 0 0 0 5.65-1.44 10.37 10.37 0 0 0 3.7-3.63v4.89a42.77 42.77 0 0 1 8.71-.83z"/><path d="M859.56 431.87a1.87 1.87 0 0 1 1.23-.44 3.35 3.35 0 0 1 1 .21l1.27.44a28.74 28.74 0 0 0 3.14 1 15.51 15.51 0 0 0 3.74.41 12 12 0 0 0 8-2.53 8.78 8.78 0 0 0 3-7.06 9.39 9.39 0 0 0-1-4.44 8.52 8.52 0 0 0-3.15-3.24 21.84 21.84 0 0 0-5.58-2.38 30.92 30.92 0 0 1-4.77-1.65 6.56 6.56 0 0 1-2.53-1.85 4.09 4.09 0 0 1-.77-2.51 3.6 3.6 0 0 1 1.36-3 5.87 5.87 0 0 1 3.76-1.09 8.55 8.55 0 0 1 5.83 2.18 11.48 11.48 0 0 1 3.41 6.24h2.24q-.06-3.7 0-6.09c0-1.59.12-3.05.23-4.39h-2.29a3 3 0 0 1-.68 1.39 1.49 1.49 0 0 1-1.09.44 3 3 0 0 1-1-.24l-1.26-.47a26.5 26.5 0 0 0-3-1 13.82 13.82 0 0 0-3.45-.38 10.71 10.71 0 0 0-7.38 2.47 8.32 8.32 0 0 0-2.8 6.53 8.82 8.82 0 0 0 2.5 6.39q2.51 2.56 7.92 4.15a33.69 33.69 0 0 1 4.38 1.67 5.74 5.74 0 0 1 2.3 1.8 4.11 4.11 0 0 1 .68 2.35 3.81 3.81 0 0 1-1.48 3.21 6.79 6.79 0 0 1-4.23 1.15 9 9 0 0 1-6.56-2.5 13.86 13.86 0 0 1-3.56-7.33h-2.18q.06 3.88 0 6.71l-.32 5.18h2.35a2.52 2.52 0 0 1 .74-1.33zm36.12-35.69a5.2 5.2 0 0 0 3.56-1.26 4.23 4.23 0 0 0 1.45-3.33 4.3 4.3 0 0 0-1.45-3.35 5.37 5.37 0 0 0-7 0 4.23 4.23 0 0 0-1.47 3.38 4.18 4.18 0 0 0 1.47 3.33 5.09 5.09 0 0 0 3.44 1.23zm4.32 5.42a40 40 0 0 1-8.89.82 65.7 65.7 0 0 1-4.88-.18v2.3q3.18.12 4.41 1.29a5.17 5.17 0 0 1 1.24 3.89v16.42a5 5 0 0 1-.56 2.56 2.92 2.92 0 0 1-1.77 1.26 13.47 13.47 0 0 1-3.32.41v2.3q7.59-.24 9.77-.24l9.47.24v-2.3a7.87 7.87 0 0 1-4.24-.94c-.82-.59-1.23-1.69-1.23-3.29zm27.31 12.27a7 7 0 0 1-2.23 1.38c-.89.35-2.17.78-3.86 1.29q-3.53 1.06-5.76 2a10.68 10.68 0 0 0-3.86 2.74A6.73 6.73 0 0 0 910 426a6.93 6.93 0 0 0 2.33 5.5 9.38 9.38 0 0 0 6.38 2 11.52 11.52 0 0 0 5.71-1.38 12.2 12.2 0 0 0 3.81-3.5 4.93 4.93 0 0 0 1.52 3.53 7.26 7.26 0 0 0 4.85 1.35 13.06 13.06 0 0 0 4.33-.68 10 10 0 0 0 3.44-2l-1-1.88-.36.29a9 9 0 0 1-1.44.74 3.67 3.67 0 0 1-1.38.26 1.6 1.6 0 0 1-1.38-.58 3.28 3.28 0 0 1-.44-1.95v-14.39a16.17 16.17 0 0 0-1.21-6.8 7.88 7.88 0 0 0-3.8-3.82 15.68 15.68 0 0 0-6.88-1.27 22.24 22.24 0 0 0-6.92 1 10.35 10.35 0 0 0-4.61 2.8 6 6 0 0 0-1.65 4.12 4 4 0 0 0 1.15 3 4.47 4.47 0 0 0 3.2 1.08 5 5 0 0 0 2.94-.82 2.53 2.53 0 0 0 1.18-2.18 2.56 2.56 0 0 0-.32-1.23l-.86-1.41-.53-1a2.22 2.22 0 0 1-.23-.91q0-.93 1.29-1.53a8.05 8.05 0 0 1 3.3-.59 5.78 5.78 0 0 1 4.35 1.48 6.29 6.29 0 0 1 1.42 4.53v2.66a2.77 2.77 0 0 1-.88 1.45zm-1.26 14.38a6 6 0 0 1-3.3.95 4 4 0 0 1-3.09-1.18 4.71 4.71 0 0 1-1.09-3.3 5.31 5.31 0 0 1 .83-3 6.52 6.52 0 0 1 1.94-1.94l3-1.71a28.94 28.94 0 0 0 2.83-1.5 2.93 2.93 0 0 0 1-1v10.76a9 9 0 0 1-2.12 1.92z"/></g></svg>