<?xml version="1.0" encoding="utf-8"?><svg xmlns="http://www.w3.org/2000/svg" viewBox="0 0 18 16"><path d="M2.12 4.05a2.07 2.07 0 0 1 2-1.29h9.58A2.17 2.17 0 0 1 15.79 4a.37.37 0 0 1 .06.33c-.06.11-.12.23-.28.23L9.24 7.92a.44.44 0 0 1-.51 0L2.34 4.61a.22.22 0 0 1-.11-.05.22.22 0 0 1 0-.12v-.16c0-.06-.06-.17-.06-.23zm.45 2.13l5.94 3.08a1 1 0 0 0 .49.11 1.19 1.19 0 0 0 .44-.11l5.94-3.08a.23.23 0 0 1 .17 0h.17.17c.06 0 .05.06.11.11a.11.11 0 0 1 0 .17v4a5.71 5.71 0 0 1-.06 1 2 2 0 0 1-.73 1.29 2.16 2.16 0 0 1-1.4.5H4.19a2.27 2.27 0 0 1-1.34-.45A2 2 0 0 1 2 11.06v-4.6c-.06-.33.17-.45.56-.28z" fill="#fff"/></svg>