<?xml version="1.0" encoding="utf-8"?><svg xmlns="http://www.w3.org/2000/svg" viewBox="0 0 1000 1000"><path d="M298.1 845.26c-30.36 3.61-57.61 3.78-81.82 1.31-17.17-1.75-47.16-6.34-66.16-13.17C115.5 821 100.79 811 82 783.88c-21.45-30.82-23.67-75.39-1-109.39 9.19-13.79 30-30.41 43-34.67 23.33-7.66 51.92-10.46 75.66.34 22 10 34.34 31.55 34.34 58.44 0 20.22-15.19 38.56-37.34 38.56s-34-14.44-23.88-38.31c3.55-8.36-1-19.81-8.12-24-18.14-10.77-46.66 1.34-58 22.34-21.68 40.17-2 81 37.34 101.33 65.33 30.67 136.66 25 198.33-5.67 56.47-28.08 83.9-60.86 108-90.33 14-17.15 37.79-48 49.06-64.54l-238.84.76-11.9.09a13.49 13.49 0 0 1-13.65-14.2v-.76a13.49 13.49 0 0 1 13.52-12.82l17.43-.17c26.37-.64 41.82-14.18 52.63-40.59 8.55-20.89 108.49-316 114.9-334.5 8-23.06-1-43.53-24.57-47.62-16.85-2.92-55 4.32-91.28 15.23-29.56 8.88-50.11 23.38-63 35.83-11.13 10.75-20.78 22.36-25.52 36.65a74 74 0 0 0-3.31 29.63c1.6 14.88 13.32 24.49 20.2 27.11 8.87 3.43 21.4 2.22 24.3-12.25 2.14-10.64 13.93-13.95 21.06-13.64 21.27.91 33.82 21.3 31.75 38.55-2.19 18.22-19.33 35.34-46.89 35.12-33-.27-57.47-18.38-68-42-9.11-20.45-10.89-49.34 1.11-74.23 9.54-19.78 18.62-31.2 29.78-41.33 13.39-12.15 29.58-21.66 50.67-31.11 34.23-15.34 72-27.21 109.69-32 65.45-8.34 133.18-12.64 197.94 0 39.37 7.68 80.37 25.32 105.37 45.68 29.22 23.8 52.85 58.25 48.33 100-5.61 51.78-36.92 86.56-87.67 104.66-44.06 15.72-124 19.45-163-8.56-4.83-3.48-1.23-11.1 4.55-9.67 30.81 7.6 63.73 7 88.1-.43 56.41-17.12 94.33-68 79-131-7-28.71-23-49.34-52-62.67-31-14.28-83-18.67-96.86 19.27-9.31 25.46-71.14 197.88-91.7 264.51-9.52 30.87-19.37 59-25.39 87.53-3.3 15.63 2.93 28.68 12.73 33.13 22.29 10.14 100.66 6.11 100.66 6.11l14.89-16.33c47.26-52.5 93.69-104.08 147.66-150.27 53.14-45.47 109.78-81.25 178.23-96.06 13.54-2.93 21.12-3 34.33-2.75a11.3 11.3 0 0 1 11.07 11.38h0a11.32 11.32 0 0 1-11.46 11.24c-6.08-.08 1.19-.16-3-.18-27.09-.08-36.22 12.84-48.93 47.8-19.83 54.55-36.59 110.21-55.1 165.24-8.35 24.82-6 28.91 20.19 29.27l83.52.36a14.88 14.88 0 0 1 14.82 14.87h0a14.86 14.86 0 0 1-14.89 14.86c-17.08 0-89-.07-97.11-.2-18.27-.29-29.36 5.55-34.87 23.3-11 35.48-31.51 90.86-40.79 126.75-4.91 18.94-6 30.4 15.31 30.4h19.85a15.14 15.14 0 0 1 15.22 15.22h0a15.14 15.14 0 0 1-15.16 15.06L571.5 848a14.93 14.93 0 0 1-14.91-15h0a14.93 14.93 0 0 1 15.11-14.86l13.5.15c27 .17 33.83-6.84 44.36-29.47C646.28 753 665.74 695.08 678 657.24c4.54-14-3.21-20.27-18.11-19.7-21.64.83-92.09.62-92.09.62s-35 52.54-47 67.4c-19.8 24.67-39.95 48.74-63.65 68.94-45.58 38.85-100.43 63.8-159.05 70.76zm462.13-414a5.1 5.1 0 0 0-8.12-5.48c-16.65 13.81-42.1 34.88-56.93 50.51-32.24 34-59.55 65.24-84.73 97.31-14.18 18.06-24.83 34.72-24.83 34.72h85.15c20.73 0 29-7.22 34.51-23.94 12.24-36.91 50.8-140.23 54.95-153.16z" fill="#15532d"/></svg>