<?xml version="1.0" encoding="utf-8"?><svg xmlns="http://www.w3.org/2000/svg" viewBox="0 0 33 33" fill="#fff"><path d="M31.3 1.7C30.1.6 28.6 0 27 0H6C4.4 0 2.9.6 1.7 1.7.6 2.9 0 4.4 0 6v21c0 1.6.6 3.1 1.7 4.2C2.9 32.4 4.4 33 6 33h21c1.6 0 3.1-.6 4.2-1.7s1.7-2.6 1.7-4.2V6c.1-1.6-.5-3.1-1.6-4.3zm-1 25.3c0 .9-.3 1.7-.9 2.3s-1.4.9-2.3.9H6c-.9 0-1.7-.3-2.3-.9s-.9-1.4-.9-2.3V6c0-1.8 1.4-3.2 3.2-3.2h21c1.8 0 3.2 1.4 3.2 3.2v21zm-4.2.4H6.9c-.8 0-1.4-.6-1.4-1.4v-2.2c0-.8.6-1.4 1.4-1.4H26c.8 0 1.4.6 1.4 1.4V26c.1.8-.5 1.4-1.3 1.4zm0-8.4H6.9c-.8 0-1.4-.6-1.4-1.4v-2.2c0-.8.6-1.4 1.4-1.4H26c.8 0 1.4.6 1.4 1.4v2.2c.1.8-.5 1.4-1.3 1.4zm0-8.4H6.9c-.8 0-1.4-.6-1.4-1.4V7c0-.8.6-1.4 1.4-1.4H26c.8 0 1.4.6 1.4 1.4v2.2c.1.8-.5 1.4-1.3 1.4z"/></svg>