<?xml version="1.0" standalone="no"?>
<!DOCTYPE svg PUBLIC "-//W3C//DTD SVG 20010904//EN"
 "http://www.w3.org/TR/2001/REC-SVG-20010904/DTD/svg10.dtd">
<svg version="1.0" xmlns="http://www.w3.org/2000/svg"
 width="700.000000pt" height="700.000000pt" viewBox="0 0 700.000000 700.000000"
 preserveAspectRatio="xMidYMid meet">
<metadata>
Created by potrace 1.14, written by Peter Selinger 2001-2017
</metadata>
<g transform="translate(0.000000,700.000000) scale(0.100000,-0.100000)"
fill="#000000" stroke="none">
<path d="M3378 5935 c-2 -1 -59 -6 -128 -10 -69 -3 -138 -8 -155 -10 -16 -2
-59 -7 -95 -10 -36 -3 -78 -8 -95 -10 -16 -2 -52 -7 -80 -10 -372 -42 -875
-225 -1091 -396 -128 -101 -233 -242 -285 -379 -20 -54 -23 -63 -35 -125 -7
-35 -7 -180 0 -214 37 -180 131 -306 281 -377 217 -104 450 -58 539 105 100
184 -91 419 -273 336 -37 -16 -71 -59 -71 -88 0 -25 -48 -75 -79 -82 -56 -12
-101 5 -157 59 -64 63 -79 107 -71 221 10 142 67 251 199 378 146 139 301 218
563 286 431 112 615 100 685 -44 21 -43 27 -117 16 -174 -5 -24 -88 -269 -208
-616 -32 -93 -61 -177 -63 -185 -2 -8 -22 -69 -45 -135 -23 -66 -54 -158 -70
-205 -16 -47 -70 -204 -120 -350 -50 -146 -104 -303 -120 -350 -57 -170 -189
-539 -208 -584 -32 -72 -81 -134 -142 -178 -57 -42 -125 -59 -243 -63 -59 -2
-116 -6 -126 -10 -24 -7 -52 -49 -53 -78 -2 -43 2 -55 29 -81 l27 -27 893 3
c491 2 893 2 893 0 0 -15 -220 -305 -366 -482 -269 -327 -520 -519 -855 -655
-143 -58 -225 -81 -399 -111 -93 -17 -415 -10 -505 10 -236 52 -394 121 -500
218 -121 111 -178 231 -178 373 1 148 69 288 176 358 162 106 338 65 351 -80
2 -20 -3 -52 -11 -71 -24 -57 -23 -125 1 -169 38 -69 145 -99 247 -70 144 43
212 187 174 371 -47 225 -233 352 -500 341 -220 -8 -347 -63 -490 -209 -139
-142 -201 -341 -173 -553 23 -171 139 -366 289 -486 47 -38 217 -127 241 -127
8 0 18 -4 24 -9 8 -8 129 -45 187 -57 210 -44 345 -59 547 -58 133 0 314 10
350 19 8 2 35 6 60 9 171 22 406 98 596 192 95 47 318 182 334 203 3 3 37 31
75 62 114 91 237 217 399 409 79 94 207 271 383 533 l26 37 141 1 c77 0 238 1
357 2 169 2 222 -1 242 -12 30 -16 41 -42 38 -85 -1 -28 -173 -543 -210 -631
-5 -11 -28 -69 -52 -130 -140 -360 -175 -395 -398 -402 -139 -4 -163 -13 -186
-65 -16 -39 -5 -83 30 -118 l25 -25 674 0 c667 0 675 0 702 21 35 26 49 74 34
119 -18 55 -46 66 -179 69 -242 7 -242 4 5 749 146 438 155 459 233 494 31 15
89 17 436 18 288 1 406 5 423 14 25 13 52 60 52 91 0 31 -27 78 -53 91 -16 9
-124 13 -379 15 -332 2 -360 3 -390 21 -60 35 -65 17 222 883 136 409 170 505
220 607 63 128 140 183 257 184 62 0 97 14 113 44 18 33 2 86 -30 102 -62 32
-298 0 -504 -69 -460 -152 -879 -442 -1420 -984 -148 -148 -361 -371 -427
-448 -19 -22 -43 -49 -54 -61 -27 -28 -195 -212 -231 -253 l-29 -34 -205 0
c-337 1 -488 21 -537 74 -33 35 -56 98 -54 151 1 63 40 216 116 457 154 489
247 764 467 1385 209 591 249 699 275 741 30 46 96 95 163 120 51 19 208 27
266 14 22 -5 50 -11 64 -13 107 -20 261 -101 342 -179 127 -123 202 -325 193
-523 -4 -110 -10 -141 -41 -227 -88 -238 -298 -417 -573 -488 -118 -31 -372
-34 -510 -7 -89 18 -111 13 -111 -23 0 -55 232 -147 419 -166 438 -43 847 62
1088 280 239 216 329 591 208 866 -167 379 -638 648 -1250 716 -33 3 -69 8
-80 11 -23 4 -492 13 -497 8z m1931 -1914 c10 -6 12 -19 7 -42 -3 -18 -82
-242 -175 -498 -92 -256 -181 -504 -197 -550 -37 -108 -80 -158 -149 -176 -68
-17 -699 -19 -688 -2 28 46 223 309 243 327 3 3 31 37 62 75 31 39 67 82 80
96 13 14 46 52 73 84 93 108 297 328 355 383 153 145 351 312 370 312 3 0 11
-4 19 -9z"/>
</g>
</svg>
